<svg width="336" height="220" viewBox="0 0 336 220" fill="none" xmlns="http://www.w3.org/2000/svg">
<g filter="url(#filter0_d_99_349)">
<rect x="101.981" y="16.5" width="132" height="183" rx="15" fill="white" shape-rendering="crispEdges"/>
<rect x="110.981" y="161.25" width="73.5" height="5.25" rx="2.625" fill="#F1F1F1"/>
<rect x="110.981" y="175.5" width="51.75" height="5.25" rx="2.625" fill="#F1F1F1"/>
<rect x="110.981" y="147" width="30" height="5.25" rx="2.625" fill="#F1F1F1"/>
<g clip-path="url(#clip0_99_349)">
<rect x="106.481" y="21" width="123" height="109.5" rx="12" fill="white"/>
<rect width="123" height="109.5" transform="translate(106.481 21)" fill="#9747FF" fill-opacity="0.04"/>
<path d="M201.467 94.1928H200.085L199.898 85.8989C200.265 85.833 200.55 85.5254 200.55 85.1394C200.55 84.7402 200.248 84.4238 199.863 84.3728L199.675 76.07C200.072 76.0288 200.385 75.7053 200.385 75.2984C200.385 74.8788 200.054 74.5427 199.64 74.5197L199.452 66.2312C199.854 66.1955 200.172 65.8682 200.172 65.4574C200.172 65.0401 199.845 64.7062 199.434 64.6804V62.2987C199.844 62.2718 200.172 61.939 200.172 61.5217C200.172 61.1043 199.845 60.7704 199.434 60.7446V60.2235C199.434 58.9796 198.599 57.9379 197.466 57.5962V55.4342C197.466 54.9998 197.114 54.6467 196.678 54.6467C196.243 54.6467 195.891 54.9992 195.891 55.4342V57.5962C194.757 57.9378 193.922 58.9796 193.922 60.2235V60.7446C193.512 60.7715 193.184 61.1043 193.184 61.5217C193.184 61.939 193.511 62.273 193.922 62.2987V64.6804C193.512 64.7073 193.184 65.0401 193.184 65.4574C193.184 65.8682 193.502 66.1961 193.904 66.2312L193.716 74.5197C193.302 74.5427 192.971 74.8788 192.971 75.2984C192.971 75.7064 193.284 76.0299 193.681 76.07L193.493 84.3716C193.109 84.4238 192.807 84.7401 192.807 85.1394C192.807 85.526 193.092 85.833 193.459 85.8988L193.272 94.1928H190.446V75.2982C190.446 74.8638 190.094 74.5107 189.658 74.5107H188.477V71.6578C189.475 70.5122 189.873 69.0135 189.535 67.5748C189.262 66.4182 188.24 64.327 184.541 62.9372V61.5209C184.541 61.0865 184.189 60.7334 183.753 60.7334C183.318 60.7334 182.966 61.086 182.966 61.5209V62.9372C181.851 63.3551 180.905 63.8609 180.14 64.4501C179.676 61.4221 178.224 58.522 176.216 56.7713C174.974 55.6894 173.429 54.7103 172.065 53.8458C170.696 52.9776 169.293 52.0847 168.796 51.4279L168.796 45.7754C168.796 45.341 168.444 44.9879 168.009 44.9879C167.573 44.9879 167.221 45.3405 167.221 45.7754V51.4279C166.723 52.0847 165.322 52.9781 163.951 53.8464C162.588 54.7108 161.042 55.6899 159.801 56.7713C157.791 58.522 156.34 61.4215 155.877 64.4485C155.112 63.8587 154.166 63.354 153.051 62.936L153.051 61.5209C153.051 61.0865 152.699 60.7334 152.264 60.7334C151.828 60.7334 151.476 61.086 151.476 61.5209V62.9372C147.778 64.3276 146.756 66.4183 146.483 67.5748C146.143 69.013 146.542 70.5123 147.54 71.6578L147.54 74.5107H146.36C145.924 74.5107 145.572 74.8632 145.572 75.2982V94.1928H142.746L142.558 85.8988C142.926 85.8329 143.21 85.5254 143.21 85.1394C143.21 84.7401 142.909 84.4238 142.524 84.3727L142.334 76.0699C142.732 76.0287 143.044 75.7053 143.044 75.2984C143.044 74.8788 142.714 74.5427 142.3 74.5196L142.111 66.2312C142.514 66.1955 142.832 65.8682 142.832 65.4574C142.832 65.0401 142.505 64.7062 142.093 64.6804V62.2987C142.503 62.2718 142.832 61.939 142.832 61.5217C142.832 61.1043 142.505 60.7704 142.093 60.7446V60.2235C142.093 58.9796 141.258 57.9378 140.125 57.5962V55.4342C140.125 54.9998 139.773 54.6467 139.338 54.6467C138.902 54.6467 138.55 54.9992 138.55 55.4342V57.5962C137.417 57.9378 136.582 58.9795 136.582 60.2235V60.7446C136.172 60.7699 135.845 61.1038 135.845 61.5211C135.845 61.9385 136.172 62.2724 136.583 62.2982V64.6798C136.172 64.7062 135.845 65.0401 135.845 65.4574C135.845 65.8682 136.163 66.196 136.565 66.2312L136.376 74.5196C135.962 74.5427 135.631 74.8788 135.631 75.2984C135.631 75.7064 135.944 76.0298 136.341 76.0699L136.153 84.3727C135.769 84.4238 135.467 84.7401 135.467 85.1394C135.467 85.526 135.751 85.833 136.119 85.8988L135.931 94.1928H134.549C134.113 94.1928 133.761 94.5453 133.761 94.9803V100.885C133.761 101.319 134.113 101.672 134.549 101.672H201.467C201.903 101.672 202.255 101.32 202.255 100.885V94.9803C202.255 94.5459 201.903 94.1928 201.467 94.1928L201.467 94.1928ZM197.859 64.67H195.497V62.308H197.859V64.67ZM195.48 66.245H197.877L198.065 74.5109H195.292L195.48 66.245ZM198.1 76.0859L198.287 84.3524H195.068L195.256 76.0859H198.1ZM196.678 59.0428C197.329 59.0428 197.859 59.5727 197.859 60.2235L197.859 60.7342H195.497V60.2235C195.497 59.5722 196.027 59.0428 196.678 59.0428H196.678ZM195.034 85.9268H198.323L198.51 94.1928H194.846L195.034 85.9268ZM188.871 94.1928H178.636L178.637 76.0855H188.871L188.871 94.1928ZM174.7 94.1928V75.2982C174.7 74.8638 174.348 74.5107 173.912 74.5107H162.103C161.668 74.5107 161.316 74.8633 161.316 75.2982V94.1928H158.954L158.954 75.2982V72.1494H177.062V94.1931L174.7 94.1928ZM173.125 79.5129C171.532 77.7683 169.216 76.4575 168.519 76.0862H173.125V79.5129ZM162.891 82.7974C162.891 81.0358 165.89 78.7683 168.007 77.599C169.651 78.5183 173.125 80.8593 173.125 82.7974L173.125 94.1931H162.89L162.891 82.7974ZM162.891 79.5129V76.0862H167.496C166.799 76.4569 164.483 77.7683 162.891 79.5129ZM156.986 71.6616C157.053 71.5847 157.118 71.5072 157.18 71.4271C157.243 71.5083 157.313 71.5792 157.38 71.6555L157.379 74.5111H156.986V71.6616ZM179.03 71.6616V74.5112H178.636V71.6551C178.703 71.5788 178.773 71.5068 178.836 71.4266C178.898 71.5079 178.963 71.5843 179.03 71.6617V71.6616ZM180.605 74.5112V72.1493H186.903V74.5112H180.605ZM183.75 64.3281C186.139 65.1754 187.65 66.4484 188.002 67.9372C188.218 68.8554 187.968 69.8198 187.337 70.5754H180.188C179.997 70.3464 179.838 70.0982 179.717 69.8313C180.097 68.8521 180.295 67.7121 180.296 66.4584C181.029 65.6044 182.213 64.8736 183.75 64.3282L183.75 64.3281ZM160.834 57.9589C161.985 56.9567 163.476 56.0105 164.793 55.1769C166.128 54.3306 167.262 53.6117 168.007 52.9022C168.753 53.6117 169.886 54.3294 171.221 55.1757C172.537 56.0105 174.029 56.9555 175.18 57.9589C177.194 59.713 178.617 62.9788 178.724 66.0837C178.789 67.9882 178.349 69.5621 177.491 70.5753L158.522 70.5747C157.664 69.5621 157.225 67.9877 157.289 66.0832C157.396 62.9788 158.82 59.713 160.834 57.9589L160.834 57.9589ZM148.014 67.9366C148.366 66.4473 149.877 65.1748 152.266 64.3275C153.803 64.8728 154.986 65.6027 155.719 66.4556C155.72 67.7098 155.918 68.8504 156.298 69.8307C156.178 70.0971 156.019 70.3458 155.827 70.5748H148.678C148.047 69.8192 147.797 68.8549 148.014 67.9366H148.014ZM149.113 72.1498H155.412V74.5118H149.113V72.1498ZM147.145 76.0862H157.379V94.1935H147.144L147.145 76.0862ZM140.518 64.6703H138.156V62.3083H140.518V64.6703ZM138.139 66.2452H140.536L140.724 74.5112H137.952L138.139 66.2452ZM140.759 76.0862L140.947 84.3527H137.728L137.916 76.0862H140.759ZM139.338 59.0431C139.989 59.0431 140.518 59.573 140.518 60.2238V60.7345H138.156V60.2238C138.156 59.5725 138.686 59.0431 139.338 59.0431H139.338ZM137.693 85.9271H140.982L141.17 94.1931H137.506L137.693 85.9271ZM200.679 100.098H135.335L135.336 95.7685H200.68L200.679 100.098Z" fill="#401479" fill-opacity="0.6"/>
<path d="M185.722 78.4472H181.785C181.35 78.4472 180.998 78.7998 180.998 79.2347V83.1711C180.998 83.6055 181.35 83.9586 181.785 83.9586H185.722C186.157 83.9586 186.509 83.606 186.509 83.1711V79.2347C186.509 78.8003 186.157 78.4472 185.722 78.4472ZM184.934 82.3836H182.572V80.0216H184.934V82.3836Z" fill="#401479" fill-opacity="0.6"/>
<path d="M185.722 86.3199H181.785C181.35 86.3199 180.998 86.6725 180.998 87.1074V91.0438C180.998 91.4782 181.35 91.8313 181.785 91.8313H185.722C186.157 91.8313 186.509 91.4788 186.509 91.0438V87.1074C186.509 86.6731 186.157 86.3199 185.722 86.3199ZM184.934 90.2563H182.572V87.8944H184.934V90.2563Z" fill="#401479" fill-opacity="0.6"/>
<path d="M154.231 78.4472H150.294C149.859 78.4472 149.507 78.7998 149.507 79.2347V83.1711C149.507 83.6055 149.859 83.9586 150.294 83.9586H154.231C154.666 83.9586 155.018 83.606 155.018 83.1711V79.2347C155.018 78.8003 154.666 78.4472 154.231 78.4472ZM153.443 82.3836H151.081V80.0216H153.443V82.3836Z" fill="#401479" fill-opacity="0.6"/>
<path d="M154.231 86.3199H150.294C149.859 86.3199 149.507 86.6725 149.507 87.1074V91.0438C149.507 91.4782 149.859 91.8313 150.294 91.8313H154.231C154.666 91.8313 155.018 91.4788 155.018 91.0438V87.1074C155.018 86.6731 154.666 86.3199 154.231 86.3199ZM153.443 90.2563H151.081V87.8944H153.443V90.2563Z" fill="#401479" fill-opacity="0.6"/>
<ellipse cx="167.862" cy="75.5603" rx="28.456" ry="28.2208" fill="#3F117A" fill-opacity="0.06"/>
</g>
<rect x="196.481" y="150" width="28.5" height="28.5" rx="9" fill="#FEEFEF"/>
<path d="M204.97 159.989C203.652 161.307 203.652 163.443 204.97 164.761L210.731 170.523L216.493 164.761C217.811 163.443 217.811 161.307 216.493 159.989C215.175 158.67 213.038 158.67 211.72 159.989L210.731 160.977L209.743 159.989C208.425 158.67 206.288 158.67 204.97 159.989Z" fill="#F05D5D"/>
</g>
<g filter="url(#filter1_d_99_349)">
<rect x="242.787" y="51.3844" width="81.675" height="113.231" rx="9.28125" fill="white" shape-rendering="crispEdges"/>
<rect x="248.356" y="140.948" width="45.4781" height="3.24844" rx="1.62422" fill="#F1F1F1"/>
<rect x="248.356" y="149.766" width="32.0203" height="3.24844" rx="1.62422" fill="#F1F1F1"/>
<rect x="248.356" y="132.131" width="18.5625" height="3.24844" rx="1.62422" fill="#F1F1F1"/>
<g clip-path="url(#clip1_99_349)">
<rect x="245.572" y="54.1688" width="76.1063" height="67.7531" rx="7.425" fill="#FAFAFA"/>
<rect width="76.1063" height="67.7531" transform="translate(245.572 54.1688)" fill="#F6F6F6"/>
<ellipse cx="283.551" cy="87.928" rx="17.6072" ry="17.4617" fill="#ECECEC"/>
<path d="M292.611 106.986H290.428C289.385 104.952 288.509 102.716 287.822 100.332C288.187 100.154 288.475 99.7085 288.597 99.1358C288.718 98.5628 288.658 97.9325 288.435 97.4419C288.212 96.9513 287.854 96.6605 287.473 96.6605H286.877C286.489 94.9163 286.161 93.1406 285.893 91.3409C286.111 91.3387 286.286 91.0585 286.286 90.7137C286.285 90.3693 286.109 90.0902 285.891 90.0896H285.715C285.115 85.5604 284.795 80.9494 284.76 76.322H284.804C285.023 76.322 285.2 76.0418 285.2 75.6962C285.2 75.3506 285.023 75.0704 284.804 75.0704H284.762C284.763 74.914 284.765 74.7938 284.767 74.7156L285.185 73.1428H285.184C285.254 72.8824 285.204 72.5809 285.064 72.4069L283.915 70.986V68.8124C283.915 68.4669 283.738 68.1866 283.52 68.1866C283.301 68.1866 283.124 68.4669 283.124 68.8124V71.0407L282.044 72.4119C281.912 72.5798 281.862 72.8625 281.92 73.1148L282.296 74.7422C282.299 74.8531 282.299 74.9601 282.302 75.0704H282.235C282.017 75.0704 281.84 75.3506 281.84 75.6962C281.84 76.0418 282.017 76.322 282.235 76.322H282.325C282.399 80.9468 282.122 85.5688 281.502 90.0896H281.148C280.93 90.0896 280.753 90.3698 280.753 90.7154C280.753 91.061 280.93 91.3412 281.148 91.3412H281.315C281.032 93.1454 280.681 94.9216 280.266 96.6605H279.567C279.18 96.6602 278.818 96.9583 278.596 97.4589C278.374 97.9598 278.32 98.6007 278.452 99.176C278.583 99.7512 278.884 100.189 279.257 100.348C278.536 102.711 277.649 104.938 276.613 106.986H274.428C274.21 106.986 274.033 107.266 274.033 107.612C274.033 107.958 274.21 108.238 274.428 108.238H292.611C292.83 108.238 293.007 107.958 293.007 107.612C293.007 107.266 292.83 106.986 292.611 106.986L292.611 106.986ZM283.117 76.3221H283.963C283.966 77.6346 284 79.5936 284.128 81.9543H283.029C283.107 80.1679 283.141 78.2942 283.117 76.3221H283.117ZM282.128 91.3413H285.054C285.316 93.1399 285.638 94.9153 286.018 96.6606H281.107C281.511 94.9198 281.852 93.1438 282.128 91.3413H282.128ZM281.149 106.986C281.149 105.646 281.601 104.407 282.334 103.737C283.068 103.066 283.971 103.066 284.705 103.737C285.438 104.407 285.89 105.646 285.89 106.986H281.149ZM287.472 99.1634H279.566C279.348 99.1634 279.171 98.8832 279.171 98.5376C279.171 98.192 279.348 97.9118 279.566 97.9118H287.472C287.691 97.9118 287.868 98.192 287.868 98.5376C287.868 98.8832 287.691 99.1634 287.472 99.1634Z" fill="#999999"/>
</g>
<rect x="301.259" y="133.988" width="17.6344" height="17.6344" rx="5.56875" fill="#F6F6F6"/>
<path d="M306.512 140.168C305.696 140.983 305.696 142.306 306.512 143.121L310.077 146.686L313.642 143.121C314.457 142.306 314.457 140.983 313.642 140.168C312.826 139.352 311.504 139.352 310.688 140.168L310.077 140.78L309.465 140.168C308.649 139.352 307.327 139.352 306.512 140.168Z" stroke="#333333" stroke-width="0.7425" stroke-linecap="round" stroke-linejoin="round"/>
</g>
<g filter="url(#filter2_d_99_349)">
<rect x="12" y="51.3844" width="81.675" height="113.231" rx="9.28125" fill="white" shape-rendering="crispEdges"/>
<rect x="17.5687" y="140.948" width="45.4781" height="3.24844" rx="1.62422" fill="#F1F1F1"/>
<rect x="17.5687" y="149.766" width="32.0203" height="3.24844" rx="1.62422" fill="#F1F1F1"/>
<rect x="17.5687" y="132.131" width="18.5625" height="3.24844" rx="1.62422" fill="#F1F1F1"/>
<g clip-path="url(#clip2_99_349)">
<rect x="14.7844" y="54.1688" width="76.1063" height="67.7531" rx="7.425" fill="#FAFAFA"/>
<rect width="76.1063" height="67.7531" transform="translate(14.7844 54.1688)" fill="#F6F6F6"/>
<ellipse cx="52.7635" cy="87.928" rx="17.6072" ry="17.4617" fill="#ECECEC"/>
<path d="M68.0291 73.5672C67.9087 73.024 67.592 72.5447 67.1397 72.2206C66.5792 71.8235 65.8597 71.7268 65.2142 71.962C64.8005 72.1107 64.4455 72.3877 64.2006 72.7525C63.9927 72.721 63.7812 72.7194 63.5728 72.7478C63.4505 72.0208 63.0464 71.3712 62.4477 70.9408C61.7573 70.4522 60.8711 70.3337 60.0764 70.6233C59.3322 70.884 58.7598 71.5055 58.4922 72.2789H58.4925C56.7719 71.0987 54.7344 70.4669 52.648 70.4666C46.8127 70.4666 42.0652 75.3324 42.0652 81.3138C42.0652 84.6879 43.5517 87.7998 46.1807 89.893C46.1815 89.8938 46.1818 89.8946 46.1823 89.8954C46.2088 89.9211 48.8314 92.4951 49.378 94.6652H49.3783C49.4508 94.9525 49.6024 95.2137 49.8161 95.419C50.0295 95.6242 50.2965 95.7653 50.5866 95.826L50.9083 98.5098L47.886 98.5101C47.7446 98.5085 47.6085 98.5634 47.5079 98.6628C47.4072 98.7621 47.3507 98.8977 47.3507 99.0391C47.3507 99.1805 47.4072 99.3161 47.5079 99.4154C47.6085 99.515 47.7446 99.57 47.886 99.5684H48.4151V102.743V102.743C48.4161 103.444 48.6952 104.117 49.1911 104.613C49.687 105.109 50.3595 105.388 51.061 105.388H54.2357H54.2354C54.9368 105.388 55.6093 105.109 56.1052 104.613C56.6011 104.117 56.8803 103.444 56.881 102.743V99.5687H57.4103C57.7002 99.5652 57.9333 99.3293 57.9333 99.0396C57.9333 98.7498 57.7002 98.5138 57.4103 98.5104H54.3875L54.7092 95.8266H54.7089C54.9991 95.7656 55.2661 95.6247 55.4797 95.4195C55.6934 95.2142 55.845 94.953 55.9176 94.6658C56.4574 92.5239 59.0129 89.9942 59.1059 89.9027C61.7274 87.8334 63.2304 84.7058 63.2304 81.3141H63.2301C63.2291 79.9569 62.977 78.6117 62.4869 77.346H68.3682C68.8299 77.346 69.2727 77.1626 69.5994 76.8362C69.9258 76.5095 70.109 76.0665 70.1087 75.6047C70.1087 74.4323 69.1514 73.4831 68.0289 73.5674L68.0291 73.5672ZM51.9739 98.5104L51.6567 95.8648H53.6388L53.3216 98.5104H51.9739ZM54.7394 88.5681C54.3636 89.4746 54.0513 90.4059 53.8048 91.3557C53.511 92.487 53.315 93.6416 53.2191 94.8066H52.0769C51.9807 93.6416 51.7846 92.487 51.4908 91.3557C51.2443 90.4059 50.9324 89.4746 50.5568 88.5681C46.0371 77.6994 51.3061 72.7014 52.6479 71.6512C53.9914 72.7029 59.2585 77.7012 54.7393 88.5681H54.7394ZM46.8787 89.0985C44.4927 87.2315 43.124 84.394 43.124 81.3138C43.124 76.4582 46.5853 72.4284 51.1031 71.6655C49.0433 73.8415 45.5611 79.3109 49.5799 88.974L49.5801 88.9737C49.9365 89.835 50.2329 90.7198 50.4671 91.6217C50.7383 92.6661 50.9218 93.7312 51.0156 94.8061H50.9144C50.6732 94.8056 50.4629 94.6408 50.4051 94.4064C49.8976 92.3925 47.5471 89.6204 46.8788 89.0983L46.8787 89.0985ZM54.2355 104.331H51.0608C50.64 104.33 50.2366 104.163 49.9389 103.865C49.6414 103.568 49.474 103.164 49.4734 102.743V99.5693H55.8228V102.744C55.8222 103.165 55.6546 103.568 55.3571 103.866C55.0596 104.163 54.6562 104.33 54.2354 104.331L54.2355 104.331ZM58.4519 89.0742C58.2196 89.2272 55.494 92.0176 54.892 94.4073C54.8336 94.6418 54.6234 94.8065 54.3821 94.8071H54.281C54.3748 93.7322 54.5582 92.667 54.8294 91.6227C55.0636 90.7205 55.36 89.8358 55.7167 88.9747C59.7355 79.3116 56.2536 73.8426 54.1935 71.6662C58.7108 72.4288 62.1719 76.4589 62.1719 81.3145C62.1719 84.3948 60.8035 87.232 58.4514 89.0743L58.4519 89.0742ZM59.4062 72.976C59.5 72.3474 59.8958 71.8094 60.4272 71.6232H60.4269C60.8976 71.4458 61.4259 71.5141 61.8358 71.8053C62.2973 72.1435 62.5666 72.6843 62.5585 73.2565C62.5585 73.4478 62.4944 73.698 62.7813 73.8914L62.7816 73.8911C62.9398 73.9976 63.143 74.0107 63.3138 73.9256C64.2168 73.4746 65.2041 74.1912 65.2041 75.2301C65.2034 75.5105 65.0914 75.7791 64.8933 75.9773C64.6948 76.1754 64.4263 76.2874 64.1459 76.2881H62.0171C61.3714 75.0243 60.4845 73.899 59.4062 72.9761L59.4062 72.976ZM68.856 76.0839C68.7264 76.2132 68.5514 76.2866 68.3685 76.2879H65.9691C66.1594 75.9675 66.2608 75.6022 66.2627 75.2298C66.2679 74.4172 65.8821 73.6517 65.2262 73.1726C65.3229 73.079 65.4385 73.007 65.5652 72.9615C65.8869 72.8393 66.2482 72.8856 66.5286 73.0848C66.8487 73.3197 67.0356 73.695 67.0298 74.0921C67.0298 74.1239 67.0258 74.1523 67.0219 74.1917L67.0222 74.1915C67.0022 74.3846 67.0897 74.5731 67.25 74.6827C67.4103 74.792 67.6179 74.8049 67.7903 74.716C68.3932 74.4059 69.051 74.9265 69.051 75.6054C69.0505 75.7841 68.9805 75.9557 68.856 76.084L68.856 76.0839ZM67.5202 100.768C67.3867 100.768 67.2532 100.779 67.121 100.799C66.9901 100.105 66.5978 99.4885 66.0246 99.0759C65.2564 98.513 64.2725 98.3614 63.3259 98.6607C62.8512 98.81 62.426 99.0854 62.0957 99.4578C61.7654 99.8302 61.5425 100.285 61.451 100.774C60.1089 100.866 59.0453 101.951 59.0453 103.273C59.0453 104.44 60.0747 105.39 61.3401 105.39H67.8142C69.0799 105.39 70.109 104.44 70.109 103.273C70.1093 101.892 68.9479 100.768 67.5202 100.768L67.5202 100.768ZM67.8145 104.331L61.3404 104.331C60.6587 104.331 60.1042 103.857 60.1042 103.273C60.1042 102.475 60.7909 101.826 61.6348 101.826C61.8594 101.826 62.0308 101.913 62.2684 101.715H62.2681C62.389 101.61 62.4584 101.457 62.4581 101.297C62.4594 100.936 62.5751 100.584 62.7882 100.291C63.0013 99.9994 63.3012 99.7818 63.6449 99.6699C64.2373 99.4694 64.8901 99.5658 65.3991 99.9293C65.8419 100.245 66.1058 100.754 66.1081 101.297C66.1081 101.434 66.0293 101.722 66.3205 101.928C66.4748 102.036 66.6747 102.054 66.8461 101.976C67.0576 101.878 67.2873 101.828 67.5202 101.826C68.3643 101.826 69.0508 102.475 69.0508 103.273C69.051 103.857 68.4963 104.331 67.8146 104.331L67.8145 104.331ZM40.1991 100.5C39.6301 100.092 38.8985 99.9866 38.2375 100.216C37.5424 100.456 37.0226 101.04 36.8657 101.758C36.3984 101.826 35.9716 102.061 35.6634 102.419C35.3551 102.776 35.1861 103.233 35.1874 103.706C35.1874 104.634 35.9692 105.39 36.9303 105.39H41.3811C42.3422 105.39 43.124 104.634 43.124 103.706C43.124 102.574 42.1627 101.655 41.0371 101.745H41.0373C40.9143 101.244 40.6171 100.803 40.199 100.5L40.1991 100.5ZM40.7943 102.889C41.0718 102.752 41.4006 102.771 41.6608 102.938C41.921 103.105 42.0747 103.396 42.066 103.706C42.066 104.051 41.7588 104.331 41.3814 104.331H36.9303C36.5529 104.331 36.246 104.051 36.246 103.706C36.246 103.113 36.795 102.72 37.2375 102.806H37.2378C37.3936 102.831 37.5526 102.787 37.6733 102.685C37.7947 102.581 37.8646 102.429 37.8646 102.269C37.8646 101.791 38.156 101.36 38.5733 101.22C38.9113 101.097 39.2884 101.149 39.581 101.359C39.8721 101.57 40.0443 101.909 40.0435 102.269C40.0435 102.452 40.0078 102.673 40.265 102.849H40.2648C40.4211 102.957 40.6235 102.972 40.7943 102.889V102.889ZM36.8993 75.7586H41.3501C42.3112 75.7586 43.0933 75.0033 43.0933 74.0751C43.0933 72.9437 42.133 72.0302 41.0061 72.1145C40.8831 71.6131 40.5862 71.1719 40.168 70.8694C39.5991 70.4618 38.8677 70.3559 38.2065 70.5855C37.5114 70.825 36.9915 71.4094 36.8349 72.1274C36.3674 72.1957 35.9406 72.4304 35.6323 72.7881C35.3238 73.1458 35.1551 73.6028 35.1564 74.0751C35.1564 75.0033 35.9382 75.7585 36.8993 75.7585L36.8993 75.7586ZM37.1016 73.167C37.2307 73.167 37.4194 73.2377 37.6412 73.0538C37.7631 72.9502 37.8333 72.7981 37.833 72.638C37.833 72.1597 38.1245 71.7284 38.5415 71.5892C38.8798 71.4659 39.2572 71.5177 39.5496 71.7277C39.8405 71.9395 40.0127 72.278 40.0119 72.638C40.0119 72.8193 39.9751 73.0403 40.2334 73.218C40.3901 73.3257 40.5924 73.3407 40.7632 73.2577C41.041 73.1247 41.3677 73.1449 41.6268 73.3113C41.886 73.4779 42.0402 73.7665 42.0347 74.0745C42.0347 74.4193 41.7275 74.7 41.3498 74.7H36.8993C36.5219 74.7 36.2149 74.4193 36.2149 74.0745C36.2099 73.5794 36.6065 73.1736 37.1016 73.167L37.1016 73.167Z" fill="#999999"/>
</g>
<rect x="70.4719" y="133.988" width="17.6344" height="17.6344" rx="5.56875" fill="#F6F6F6"/>
<path d="M75.7242 140.168C74.9087 140.983 74.9087 142.306 75.7242 143.121L79.2891 146.686L82.854 143.121C83.6696 142.306 83.6696 140.983 82.854 140.168C82.0385 139.352 80.7163 139.352 79.9008 140.168L79.2891 140.78L78.6775 140.168C77.8619 139.352 76.5397 139.352 75.7242 140.168Z" stroke="#333333" stroke-width="0.7425" stroke-linecap="round" stroke-linejoin="round"/>
</g>
<defs>
<filter id="filter0_d_99_349" x="83.7133" y="-3.8147e-06" width="168.536" height="219.536" filterUnits="userSpaceOnUse" color-interpolation-filters="sRGB">
<feFlood flood-opacity="0" result="BackgroundImageFix"/>
<feColorMatrix in="SourceAlpha" type="matrix" values="0 0 0 0 0 0 0 0 0 0 0 0 0 0 0 0 0 0 127 0" result="hardAlpha"/>
<feMorphology radius="1.76786" operator="dilate" in="SourceAlpha" result="effect1_dropShadow_99_349"/>
<feOffset dy="1.76786"/>
<feGaussianBlur stdDeviation="8.25"/>
<feComposite in2="hardAlpha" operator="out"/>
<feColorMatrix type="matrix" values="0 0 0 0 0 0 0 0 0 0 0 0 0 0 0 0 0 0 0.04 0"/>
<feBlend mode="normal" in2="BackgroundImageFix" result="effect1_dropShadow_99_349"/>
<feBlend mode="normal" in="SourceGraphic" in2="effect1_dropShadow_99_349" result="shape"/>
</filter>
<filter id="filter1_d_99_349" x="231.484" y="41.175" width="104.282" height="135.838" filterUnits="userSpaceOnUse" color-interpolation-filters="sRGB">
<feFlood flood-opacity="0" result="BackgroundImageFix"/>
<feColorMatrix in="SourceAlpha" type="matrix" values="0 0 0 0 0 0 0 0 0 0 0 0 0 0 0 0 0 0 127 0" result="hardAlpha"/>
<feMorphology radius="1.09386" operator="dilate" in="SourceAlpha" result="effect1_dropShadow_99_349"/>
<feOffset dy="1.09386"/>
<feGaussianBlur stdDeviation="5.10469"/>
<feComposite in2="hardAlpha" operator="out"/>
<feColorMatrix type="matrix" values="0 0 0 0 0 0 0 0 0 0 0 0 0 0 0 0 0 0 0.04 0"/>
<feBlend mode="normal" in2="BackgroundImageFix" result="effect1_dropShadow_99_349"/>
<feBlend mode="normal" in="SourceGraphic" in2="effect1_dropShadow_99_349" result="shape"/>
</filter>
<filter id="filter2_d_99_349" x="0.696761" y="41.175" width="104.282" height="135.838" filterUnits="userSpaceOnUse" color-interpolation-filters="sRGB">
<feFlood flood-opacity="0" result="BackgroundImageFix"/>
<feColorMatrix in="SourceAlpha" type="matrix" values="0 0 0 0 0 0 0 0 0 0 0 0 0 0 0 0 0 0 127 0" result="hardAlpha"/>
<feMorphology radius="1.09386" operator="dilate" in="SourceAlpha" result="effect1_dropShadow_99_349"/>
<feOffset dy="1.09386"/>
<feGaussianBlur stdDeviation="5.10469"/>
<feComposite in2="hardAlpha" operator="out"/>
<feColorMatrix type="matrix" values="0 0 0 0 0 0 0 0 0 0 0 0 0 0 0 0 0 0 0.04 0"/>
<feBlend mode="normal" in2="BackgroundImageFix" result="effect1_dropShadow_99_349"/>
<feBlend mode="normal" in="SourceGraphic" in2="effect1_dropShadow_99_349" result="shape"/>
</filter>
<clipPath id="clip0_99_349">
<rect x="106.481" y="21" width="123" height="109.5" rx="12" fill="white"/>
</clipPath>
<clipPath id="clip1_99_349">
<rect x="245.572" y="54.1688" width="76.1063" height="67.7531" rx="7.425" fill="white"/>
</clipPath>
<clipPath id="clip2_99_349">
<rect x="14.7844" y="54.1688" width="76.1063" height="67.7531" rx="7.425" fill="white"/>
</clipPath>
</defs>
</svg>
