<svg width="348" height="373" viewBox="0 0 348 373" fill="none" xmlns="http://www.w3.org/2000/svg">
<g opacity="0.1" clip-path="url(#clip0_99_235)">
<path fill-rule="evenodd" clip-rule="evenodd" d="M188.335 149.853C189.789 148.77 192.054 148.288 193.432 149.786C193.639 151.624 192.258 153.179 191.851 154.926C189.84 162.75 186.53 170.154 183.102 177.447C181.058 181.77 177.117 186.118 179.192 191.198C177.967 191.816 176.26 192.748 175.154 191.422C173.51 189.308 172.791 186.637 172.045 184.109C172.513 183.906 173.419 183.508 173.876 183.313C174.212 181.971 174.569 180.63 174.944 179.308C173.582 177.352 172.865 175.077 172.958 172.685C171.147 172.016 169.43 171.149 167.865 170.025C164.934 171.161 161.925 173.26 158.651 172.443C156.427 171.927 156.439 169.297 155.951 167.528C155.414 167.309 154.349 166.878 153.82 166.667C153.977 165.148 154.133 163.638 154.358 162.143C160.789 162.53 166.39 159.1 172.25 157.004C177.626 154.671 183.475 153.238 188.335 149.853Z" fill="#fff"/>
<path fill-rule="evenodd" clip-rule="evenodd" d="M316.465 245.235C315.631 246.113 315.785 246.666 316.907 246.877C317.693 245.978 317.548 245.434 316.465 245.235ZM317.8 241.263C316.933 242.088 317.056 242.645 318.158 242.943C318.997 242.099 318.874 241.541 317.8 241.263ZM23.0018 170.006C22.37 175.004 22.6194 180.079 21.8665 185.07C21.5892 200.661 23.2136 216.527 28.3456 231.31C27.8302 226.988 26.6758 222.782 26.0374 218.477C24.1424 206.951 23.3559 195.26 23.3293 183.583C23.1818 179.055 23.8331 174.496 23.0018 170.006ZM311.432 167.001C313.094 173.546 315.667 179.82 317.548 186.303C319.805 192.847 321.592 199.608 324.61 205.857C323.724 201.191 322.546 196.527 320.613 192.177C320.59 191.794 320.543 191.026 320.51 190.642C320.352 190.202 320.019 189.31 319.863 188.862C317.721 182.607 315.358 176.439 312.93 170.303C312.443 169.182 311.944 168.077 311.432 167.001ZM296.336 139.138C298.919 146.305 301.183 153.604 302.691 161.075C305.935 176.129 306.219 191.651 304.871 206.932C302.472 222.803 298.252 238.499 291.045 252.912C283.786 267.675 274.026 281.224 262.189 292.662C256.55 298.274 250.144 303.006 244.293 308.381C228.104 320.215 209.064 328.208 189.207 331.137C172.189 333.68 154.69 335.377 137.663 331.936C138.383 331.571 139.12 331.234 139.876 330.898C127.546 329.241 115.621 325.368 104.256 320.373C97.6326 317.622 91.6497 313.599 85.1066 310.687C83.0985 309.484 81.5027 307.717 79.6016 306.382C82.1472 309.764 85.3709 312.549 88.3694 315.526C93.953 320.747 99.4711 326.09 105.57 330.727C109.517 333.529 112.348 337.618 116.328 340.399C119.086 342.301 121.994 343.971 124.774 345.86C128.787 346.079 132.851 345.722 136.806 346.663C135.822 348.516 133.788 348.015 132.07 348.054C135.272 348.157 138.398 349.117 141.626 349.086C141.601 349.366 141.551 349.934 141.527 350.215L141.778 348.829C146.372 350.391 151.281 350.21 155.995 351.204C188.013 354.492 220.952 347.029 248.576 330.541C262.151 322.741 273.896 312.134 284.276 300.5C295.401 288.058 303.71 273.36 310.182 258.038C316.857 242.701 321.052 226.403 323.98 209.99C323.963 209.639 323.946 208.957 323.939 208.608C317.992 194.396 314.089 179.456 308.881 164.971C305.489 156.028 303.004 146.347 296.336 139.138ZM292.286 129.402C293.562 132.7 294.942 135.97 296.493 139.166C296.695 135.483 294.05 132.42 292.286 129.402ZM288.824 122.498C288.402 123.547 288.752 124.06 289.902 124.048C290.293 123.004 289.933 122.49 288.824 122.498ZM285.914 83.5471C284.657 85.2462 283.383 86.919 282.054 88.5447C284.537 91.9428 287.368 95.1339 290.91 97.4644C291.211 94.6924 291.551 91.9333 291.792 89.1609C289.418 87.736 287.031 86.1784 285.914 83.5471ZM299.489 85.6486C298.298 87.38 296.308 88.1635 294.369 88.6855C293.91 91.9236 293.869 95.2788 292.654 98.3593C296.787 94.2538 302.609 92.0562 306.211 87.3513C306.672 84.2665 306.595 81.1325 306.985 78.047C304.379 80.4706 301.599 82.7519 299.489 85.6486ZM136.48 56.7436C123.903 58.7318 111.395 61.3844 99.251 65.2487C91.9528 67.3209 85.9463 72.1588 79.7245 76.2901C53.7377 95.1987 34.5342 123.248 26.4487 154.376C26.7764 154.677 27.4381 155.284 27.765 155.591C26.4023 159.488 25.9987 163.616 25.6018 167.696C24.8926 184.56 25.2848 201.554 28.0506 218.247C30.7102 234.362 34.8586 250.579 43.4857 264.627C51.1831 277.144 60.9726 288.382 72.2326 297.824C97.8435 319.591 131.519 331.674 165.13 330.867C196.395 330.371 227.436 319.177 251.659 299.372C277.294 278.986 295.031 249.105 301.245 216.985C302.348 207.948 304.025 198.909 303.771 189.77C303.798 170.821 299.819 151.921 292.392 134.507C286.541 121.238 279.039 108.526 269.181 97.8395C261.959 88.8219 253.026 81.269 243.665 74.5702C242.65 73.5626 241.357 73.752 240.173 74.2046C240.242 73.7274 240.391 72.7664 240.469 72.2904C226.199 63.8937 210.426 57.7169 193.996 55.32C174.919 52.3222 155.489 53.9125 136.48 56.7436ZM159.918 49.2037C141.098 49.6862 122.209 53.6657 105.149 61.7002C133.074 54.2918 162.235 49.9425 191.113 52.8762C195.008 53.073 198.629 54.9196 202.564 54.7967C195.245 52.5429 187.649 51.5508 180.17 50.0229C173.415 49.895 166.692 48.8482 159.918 49.2037ZM256.005 54.3049C253.1 60.9577 248.337 66.5805 243.536 71.9317C247.37 74.3465 251.174 76.8393 254.698 79.7178C256.644 81.5042 258.053 83.8067 260.111 85.51C264.245 89.1599 267.825 93.3903 271.67 97.3451C274.793 91.4638 279.335 86.4042 284.218 81.9377C274.861 72.6731 265.431 63.5044 256.005 54.3049ZM255.32 50.7062C259.264 55.5799 264.045 59.7074 268.536 64.0652C266.803 61.4477 264.375 59.3995 262.361 57.0144C260.138 54.7808 258.244 52.079 255.32 50.7062ZM267.117 31.8229C265.156 31.9541 263.2 31.7212 261.253 31.5781C256.363 33.8179 252.377 37.6252 249.072 41.8005C250.574 44.5759 252.335 47.5374 255.479 48.6784C260.213 51.3905 263.337 56.1311 267.117 59.956C273.931 67.1349 280.676 74.3769 287.558 81.4917C289.7 83.5682 291.435 86.2514 294.452 87.1984C296.187 86.2787 297.738 85.0611 299.138 83.6709C299.027 83.4305 298.815 82.9429 298.703 82.7025C301.419 80.373 303.011 77.0961 304.946 74.1525C302.907 69.9266 298.545 67.3822 295.748 63.6694C296.107 63.5353 296.815 63.2748 297.164 63.1394C289.558 54.6246 281.637 46.3713 273.46 38.4087C271.492 36.0615 269.615 33.6288 267.117 31.8229ZM262.35 29.3817C262.383 30.5032 262.908 30.7381 263.924 30.1025C263.851 28.9762 263.326 28.7332 262.35 29.3817ZM253.881 34.3294C255.825 30.6585 260.051 27.1882 264.444 28.4981C268.996 29.9012 272.128 33.7601 275.791 36.5751C275.547 36.8372 275.031 37.3479 274.767 37.6066C284.578 46.79 293.662 56.7251 302.525 66.8115C304.858 69.9563 308.314 72.7387 308.633 76.9313C308.346 81.72 307.668 86.4859 307.011 91.2463C306.744 91.0441 306.2 90.6365 305.922 90.4321C302.419 95.1502 297.482 100.306 291.136 100.05C289.854 99.2447 288.554 98.5182 287.29 97.7308C285.719 94.7039 282.831 92.7049 280.905 89.9416C278.485 93.1409 275.761 96.1161 272.683 98.6921C277.674 105.37 283.402 111.468 288.09 118.393C293.614 125.08 296.772 133.225 300.814 140.815C303.46 146.493 306.834 151.822 309.147 157.661C313.664 168.596 318.496 179.424 322.028 190.748C322.984 194.356 325.352 197.383 326.319 200.983C326.463 203.576 326.352 206.193 326.596 208.798C324.774 225.631 321.179 242.383 314.449 257.998C304.961 280.468 290.184 300.717 271.592 316.521C266.643 321.287 260.761 324.861 255.263 328.929C241.997 338.386 228.127 347.266 212.917 353.286C210.222 354.306 207.61 355.716 204.696 355.899C206.235 354.203 208.512 353.634 210.529 352.717C219.997 348.815 229.199 344.209 237.864 338.726C223.257 345.662 207.668 350.583 191.641 352.77C178.414 354.71 164.985 354.448 151.717 353.13C143.408 352.203 135.429 349.415 127.149 348.419C123.5 347.039 120.265 344.836 117.033 342.688C115.235 341.504 113.447 340.312 111.646 339.151C103.688 333.733 96.0962 327.804 88.6818 321.66C84.8295 318.497 81.3746 314.891 77.4402 311.823C76.0862 310.791 74.7997 309.62 74.2151 307.986C75.3786 308.356 76.5481 308.759 77.7047 309.184C66.2234 298.922 56.7938 286.725 47.1166 274.822C44.4775 269.745 40.9232 265.227 38.2743 260.148C24.7346 236.087 18.409 208.009 20.4487 180.475C20.5437 174.715 21.0813 168.903 22.6016 163.334C29.0952 128.165 49.4892 95.7434 78.4812 74.7687C82.7109 71.8409 86.4255 68.105 91.3284 66.2556C105.574 58.1666 121.135 52.3273 137.288 49.4517C169.141 43.5307 202.867 49.0618 231.252 64.6703C234.68 66.4528 237.863 68.6656 241.3 70.4572C245.289 64.2454 249.688 58.3106 254.427 52.6365C253.693 51.7289 252.915 50.8472 252.409 49.7975C251.021 46.9958 248.554 44.8621 247.437 41.9063C248.84 38.858 251.458 36.581 253.881 34.3294Z" fill="#fff"/>
<path fill-rule="evenodd" clip-rule="evenodd" d="M205.002 297.632C198.989 300.153 192.577 301.412 186.4 303.379C192.987 302.741 199.383 300.72 205.578 298.439C210.821 296.203 216.23 293.923 220.651 290.258C215.48 292.81 210.394 295.575 205.002 297.632ZM77.7673 263.855C88.7004 276.933 102.727 287.639 118.495 294.18C116.027 292.297 113.181 291.024 110.588 289.336C98.6483 282.223 87.8009 273.439 77.7673 263.855ZM162.265 83.3165C152.055 82.9333 141.751 82.984 131.64 84.6683C125.246 85.6943 119.332 88.3905 113.439 90.9189C104.574 95.6475 95.7865 100.815 88.4954 107.819C65.2784 128.453 51.0568 159.165 51.1432 190.28C50.8185 208.374 55.2272 226.486 63.5035 242.563C65.8862 247.35 69.7065 251.18 72.8576 255.455C85.0845 269.971 100.559 281.437 116.963 290.834C130.511 298.226 145.511 303.969 161.172 303.696C189.654 304.363 218.222 293.536 239.099 274.152C249.924 262.427 258.371 248.409 263.315 233.216C265.601 226.195 266.743 218.888 268.028 211.646C268.317 211.917 268.904 212.467 269.192 212.745C268.617 226.251 263.891 239.18 258.08 251.264C266.729 238.388 272.113 223.305 274.226 207.956C279.556 175.315 268.96 140.526 246.518 116.267C230.485 103.532 212.396 92.9249 192.605 87.3049C186.22 86.1305 179.929 84.2865 173.395 84.1617C169.67 84.1321 165.96 83.7475 162.265 83.3165ZM143.932 80.905C148.753 81.523 153.642 80.5223 158.485 81.1189C165.741 81.0253 172.928 82.1455 180.122 82.9582C199.719 84.7577 217.511 94.2593 233.959 104.446C231.796 102.132 229.067 100.484 226.508 98.6785C216.345 91.7035 204.997 86.492 193.121 83.1913C185.102 80.7303 176.675 80.2745 168.402 79.2151C160.225 79.0179 151.975 79.3295 143.932 80.905ZM163.976 77.359C189.662 77.5762 215.231 86.5144 235.17 102.798C241.075 107.371 245.911 113.1 251.513 118.008C253.571 119.864 254.294 122.666 255.963 124.822C269.737 143.876 277.291 167.289 277.428 190.791C277.134 198.172 277.456 205.699 275.343 212.871C271.872 231.558 263.473 249.273 251.408 263.954C247.928 268.318 243.868 272.157 240.134 276.296C230.307 286.961 218.425 296.144 204.62 300.977C186.111 307.61 165.718 308.506 146.544 304.501C138.769 302.757 130.908 301.134 123.446 298.239C95.4888 287.913 71.9005 266.25 59.6449 239.044C52.5121 223.253 48.8654 205.826 49.3379 188.495C50.0781 155.005 66.4893 122.223 92.999 101.687C98.137 97.4379 103.952 94.1543 109.542 90.5689C126.357 82.075 145.087 77.2578 163.976 77.359Z" fill="#fff"/>
<path fill-rule="evenodd" clip-rule="evenodd" d="M181.179 187.33C182.248 187.244 182.489 186.682 181.911 185.647C180.802 185.729 180.562 186.29 181.179 187.33ZM162.531 171.699C162.713 172.021 163.088 172.658 163.279 172.981C161.787 173.728 160.328 174.528 158.922 175.392C158.688 177.046 158.513 178.717 158.406 180.396C159.533 182.453 160.677 185.193 163.361 185.491C166.097 186.257 168.677 184.786 170.729 183.096C171.157 183.221 172.033 183.467 172.471 183.594C174.231 180.508 174.644 176.502 172.162 173.67C170.044 170.496 165.748 171.181 162.531 171.699ZM149.815 171.541C148.774 175.323 147.568 179.061 146.294 182.782C143.256 191.822 138.524 200.218 136.18 209.507C142.037 206.788 148.088 204.53 154.109 202.195C162.11 199.238 170.002 195.952 178.125 193.317C174.923 192.477 173.491 189.297 171.464 187.024C169.359 187.915 167.103 188.891 164.789 188.371C160.369 187.608 157.128 183.574 156.489 179.277C155.9 176.938 157.529 174.92 158.507 172.952C156.311 171.071 154.334 168.964 152.746 166.559C150.817 167.495 150.357 169.674 149.815 171.541ZM154.164 166.419C155.932 168.256 157.699 170.108 159.353 172.06C161.836 170.464 164.736 169.088 167.777 169.681C172.631 169.778 176.114 175.04 175.541 179.608C175.457 181.929 173.844 183.739 172.909 185.761C174.218 188.221 176.188 190.229 177.916 192.392C182.14 178.794 186.908 165.368 191.972 152.066C179.716 157.746 166.594 161.205 154.164 166.419ZM193.742 151.111C191.522 157.516 189.146 163.879 186.868 170.269C185.216 175.417 182.763 180.361 181.97 185.735C183.866 182.455 185.057 178.838 186.553 175.363C190.063 166.906 193.345 158.34 195.909 149.548C195.181 150.066 194.452 150.583 193.742 151.111ZM197.705 144.701C198.024 145.631 198.365 146.628 198.05 147.626C195.091 158.239 191.006 168.496 186.811 178.665C184.408 184.101 182.507 189.801 179.517 194.937C173.838 195.971 168.667 198.604 163.475 201C156.364 204.335 149.357 207.892 142.043 210.747C139.209 211.831 136.291 212.945 133.211 212.751C133.987 210.953 135.069 209.119 134.388 207.124C140.74 192.209 145.208 176.544 151.376 161.565C152.77 162.684 152.133 164.168 151.58 165.549C152.604 165.174 153.646 164.816 154.705 164.477C154.239 164.25 153.317 163.804 152.851 163.577C157.801 160.608 163.529 159.339 168.853 157.185C177.526 154.011 186.107 150.599 194.619 147.017C195.88 146.597 196.862 145.739 197.705 144.701Z" fill="#fff"/>
<path fill-rule="evenodd" clip-rule="evenodd" d="M71.2854 166.797C72.305 166.373 73.3074 165.76 74.4524 165.626C77.4604 166.563 80.4014 167.88 82.9967 169.714C84.0086 170.332 84.0936 171.605 84.5126 172.621C79.7206 171.771 75.4056 169.256 71.2854 166.797Z" fill="#fff"/>
<path fill-rule="evenodd" clip-rule="evenodd" d="M245.275 191.381C249.901 192.185 254.275 194.06 258.63 195.762C258.578 197.164 257.051 197.534 255.926 197.59C252.163 196.561 248.515 195.18 244.962 193.593C245.031 193.034 245.197 191.929 245.275 191.381Z" fill="#fff"/>
<path fill-rule="evenodd" clip-rule="evenodd" d="M68.7323 207.561C72.2956 205.054 76.3382 202.418 80.8705 202.596C79.0578 206.106 74.7576 206.579 71.5195 208.164C70.8327 208.014 69.4291 207.712 68.7323 207.561Z" fill="#fff"/>
<path fill-rule="evenodd" clip-rule="evenodd" d="M221.05 247.763C224.898 241.882 229.687 236.618 235.377 232.47C238.14 231.879 240.54 233.826 242.814 235.078C245.613 237.058 248.679 238.747 251.001 241.332C249.845 241.223 248.787 241.141 247.686 241.006C246.645 240.869 245.49 241.002 244.736 240.165C242.306 238.14 239.906 236.031 237.095 234.559C235.237 236.387 233.228 238.059 231.168 239.643C233.217 241.741 236.031 243.52 236.553 246.645C233.61 245.748 231.814 243.155 229.728 241.109C227.812 242.839 225.94 244.625 224.397 246.686C226.643 251.026 231.705 252.468 234.836 255.921C235.341 258.121 233.437 256.891 232.303 256.524C233.12 257.58 234.09 258.704 233.146 260.069C230.295 257.775 227.964 254.938 225.017 252.769C223.216 251.527 221.88 249.776 221.05 247.763Z" fill="#fff"/>
<path fill-rule="evenodd" clip-rule="evenodd" d="M86.3651 255.241C88.0997 257.518 90.5226 259.606 93.5896 259.327C90.9299 258.426 88.5871 256.915 86.3651 255.241ZM93.1729 242.753C92.5309 236.351 101.32 233.709 105.292 238.028C108.593 240.67 109.004 245.027 108.822 248.955C108.402 249.179 107.543 249.608 107.123 249.823C106.775 246.185 106.911 241.653 103.266 239.584C101.095 237.827 98.1744 238.058 95.9873 239.619C95.8439 240.783 95.7203 241.95 95.6146 243.135C97.6683 245.93 100.799 248.404 100.921 252.159C100.792 257.462 95.0346 262.647 89.7286 260.326C84.2637 257.904 82.333 250.266 85.823 245.491C86.107 245.558 86.6946 245.695 86.9885 245.764C87.0795 247.888 86.1256 250.151 87.1066 252.166C87.9903 254.153 89.8595 255.419 91.4499 256.822C93.5807 256.947 97.2379 258.093 97.7133 254.97C98.1334 250.415 94.86 246.725 93.1729 242.753Z" fill="#fff"/>
<path fill-rule="evenodd" clip-rule="evenodd" d="M180.024 267.782C180.403 267.488 181.181 266.896 181.57 266.604C184.803 269.966 187.168 273.997 189.289 278.128C189.168 279.109 189.056 280.099 188.943 281.097C184.602 277.818 182.212 272.601 180.024 267.782Z" fill="#fff"/>
<path fill-rule="evenodd" clip-rule="evenodd" d="M138.695 277.263C139.898 272.983 140.823 268.085 144.47 265.142C145.11 270.75 141.239 275.261 140.118 280.514C139.489 279.49 138.077 278.603 138.695 277.263Z" fill="#fff"/>
</g>
<defs>
<clipPath id="clip0_99_235">
<rect width="309" height="337" fill="white" transform="translate(41.203) rotate(7.02279)"/>
</clipPath>
</defs>
</svg>
