<svg width="271" height="225" viewBox="0 0 271 225" fill="none" xmlns="http://www.w3.org/2000/svg">
<g opacity="0.1" clip-path="url(#clip0_99_843)">
<mask id="mask0_99_843" style="mask-type:alpha" maskUnits="userSpaceOnUse" x="0" y="0" width="271" height="225">
<path d="M0.500854 0.520508H270.876V224.471H0.500854V0.520508Z" fill="white"/>
</mask>
<g mask="url(#mask0_99_843)">
<path fill-rule="evenodd" clip-rule="evenodd" d="M232.514 158.174C235.279 160.242 236.151 163.786 238.164 166.465C239.862 169.385 242.94 171.156 244.578 174.118C245.756 176.242 247.835 177.997 247.816 180.61C248.344 181.515 249.191 182.457 248.862 183.601C248.136 186.501 246.257 188.929 244.407 191.223C242.567 193.707 240.627 196.135 238.413 198.313C237.696 198.913 236.89 199.69 235.869 199.61C235.105 199.427 234.492 198.894 233.815 198.533C227.85 198.778 222.125 196.851 216.374 195.573C203.511 192.214 190.609 188.966 177.76 185.552C171.202 184.06 164.695 182.371 158.194 180.658C154.474 179.496 150.562 178.731 147.156 176.768C146.635 176.333 145.676 175.917 145.881 175.103C146.907 169.793 148.504 164.539 148.433 159.086C148.758 153.883 147.29 147.894 151.11 143.598C152.327 143.388 153.545 143.699 154.728 143.943C160.457 145.295 166.34 145.708 172.149 146.572C179.771 147.608 187.336 149.029 194.842 150.714C204.924 152.807 215.191 154.047 225.183 156.58C227.633 157.073 229.945 158.536 232.514 158.174Z" fill="#CCCCCC"/>
<path fill-rule="evenodd" clip-rule="evenodd" d="M14.2095 179.123C13.903 179.729 14.1122 180.004 14.8359 179.961C15.1491 179.337 14.9399 179.062 14.2095 179.123ZM16.4497 180.077C16.1518 180.671 16.3659 180.958 17.0932 180.934C17.3973 180.31 17.1825 180.028 16.4497 180.077ZM18.8085 181.099C18.4898 181.698 18.6978 181.98 19.4233 181.955C19.7421 181.337 19.5384 181.05 18.8085 181.099ZM33.2443 180.346C32.9397 180.94 33.1501 181.221 33.8689 181.197C34.1864 180.573 33.9827 180.285 33.2443 180.346ZM35.569 181.374C35.0845 181.876 36.0314 182.616 36.5477 182.402C37.0463 181.882 36.0963 181.148 35.569 181.374ZM38.1792 182.592C37.6825 183.105 38.6833 183.809 39.1935 183.644C39.6908 183.111 38.7023 182.402 38.1792 182.592ZM40.4855 183.656C40.0903 184.298 41.6729 185.253 42.1109 184.671C41.8747 184.054 41.1443 183.589 40.4855 183.656ZM43.1912 184.879C42.7214 185.399 43.7626 186.072 44.2691 185.95C44.7493 185.399 43.7112 184.726 43.1912 184.879ZM45.5079 185.919C45.1249 186.531 46.642 187.571 47.0935 187.002C46.9057 186.36 46.1698 185.87 45.5079 185.919ZM48.2228 187.155C47.8074 187.761 49.3061 188.837 49.7686 188.287C49.601 187.638 48.8871 187.137 48.2228 187.155ZM50.9383 188.464C50.4684 188.984 51.4931 189.651 51.9972 189.504C52.4921 188.966 51.4552 188.275 50.9383 188.464ZM53.655 189.749C53.1717 190.257 54.1633 190.948 54.6656 190.758C55.1727 190.22 54.1744 189.516 53.655 189.749ZM56.409 190.96C55.8823 191.425 56.781 192.226 57.312 192.018C57.8417 191.529 56.9486 190.74 56.409 190.96ZM81.9411 210.114C83.0337 211.264 84.6169 211.674 85.9022 212.542C87.7863 213.753 89.6001 215.063 91.5613 216.145C91.6268 215.344 91.9168 214.341 90.8156 214.151C87.8089 212.921 84.8194 211.637 81.9411 210.114ZM1.87441 150.163C1.92029 152.256 1.75696 154.367 2.01083 156.462C2.1393 157.477 2.0561 158.513 1.80406 159.516C2.71984 166.02 5.76384 171.969 8.15146 178.022C8.41757 177.991 8.68245 177.973 8.94182 177.961C8.66226 175.605 9.08497 173.233 8.73139 170.885C8.97425 171.113 9.45752 171.572 9.69732 171.804C9.68264 171.471 9.64961 170.803 9.63492 170.469C9.34802 170.313 8.77849 169.996 8.49587 169.843C8.22303 168.596 7.23508 167.225 8.23955 166.067C5.65863 160.952 3.61848 155.607 1.87441 150.163ZM151.339 142.967C151.172 143.993 150.984 145.017 150.77 146.052C156.75 146.03 162.704 146.772 168.679 146.759C171.224 146.882 173.723 147.529 176.274 147.513C168.034 145.643 159.506 145.2 151.339 142.967ZM152.607 125.524C152.226 126.205 151.833 126.961 151.761 127.783C149.727 142.479 147.327 157.125 144.917 171.77C141.391 192.96 137.242 214.041 133.749 235.232C133.142 239.544 132.123 243.827 131.911 248.194C133.694 240.505 134.909 232.681 136.401 224.93C142.21 194.178 146.609 163.191 151.911 132.353C152.172 130.083 152.979 127.82 152.607 125.524ZM116.679 60.8789C107.551 57.6409 98.4104 54.3945 89.1064 51.6863C78.1655 48.4851 67.1885 45.4141 56.1276 42.6625C51.9134 41.6948 47.7603 40.3636 43.4781 39.7617C60.4649 46.2076 78.1441 50.5986 95.5297 55.8198C104.541 58.3799 113.422 61.5181 122.634 63.2958C120.77 62.2149 118.676 61.6564 116.679 60.8789ZM128.174 65.5513C113.991 62.856 100.298 58.1982 86.4215 54.3057C74.2755 50.7907 62.0603 47.4433 50.1289 43.2455C46.2744 41.9835 42.5397 40.3318 38.5885 39.3904C39.7459 41.2256 41.2416 42.8644 42.1121 44.8715C41.7249 45.0336 40.9516 45.3652 40.5644 45.5279C41.7218 45.7726 42.859 46.0815 43.9859 46.4308C52.0743 48.7102 60.189 50.8825 68.2352 53.2994C79.3223 56.6438 90.3116 60.3026 101.509 63.2451C110.651 65.626 119.721 68.2913 128.599 71.5115C128.289 71.692 127.668 72.0449 127.358 72.2254C128 72.412 128.63 72.6151 129.266 72.8102C129.86 70.7523 130.441 68.7036 131.058 66.6622C130.114 66.2475 129.145 65.8939 128.174 65.5513ZM160.18 80.0342C156.813 95.0151 154.177 110.167 152.104 125.386C153.486 125.35 153.201 123.819 153.463 122.888C155.087 112.195 157.003 101.531 158.422 90.8149C159.177 87.2546 159.817 83.6508 160.18 80.0342ZM64.4259 4.66809C64.1494 5.26576 64.3751 5.55328 65.1037 5.53737C65.3912 4.92319 65.1655 4.63567 64.4259 4.66809ZM78.2481 10.4007C74.035 8.62726 69.8795 6.66052 65.508 5.31531C67.4136 6.69967 69.7431 7.27165 71.8438 8.27062C75.5809 9.7027 79.184 11.5446 83.0276 12.6501C81.5313 11.7104 79.8466 11.1305 78.2481 10.4007ZM83.955 12.7779C83.6234 13.3609 83.8241 13.6496 84.5563 13.6539C84.8952 13.052 84.6946 12.7632 83.955 12.7779ZM249.232 102.155C248.859 101.527 248.325 101.194 247.618 101.153C232.584 98.5803 217.487 96.3407 202.311 94.7759C192.442 93.7922 182.538 93.186 172.633 92.7217C170.386 92.4103 168.139 92.0628 165.873 91.8818C165.713 92.1234 165.39 92.6061 165.229 92.8471C165.068 92.6042 164.755 92.1246 164.591 91.886C162.977 91.4976 161.297 91.4291 159.634 91.3789C157.879 102.675 156.132 113.977 154.253 125.253C154.98 125.247 155.703 125.257 156.42 125.3C156.576 125.109 156.893 124.73 157.049 124.539C170.192 125.732 183.404 125.884 196.555 126.98C197.676 127.062 198.893 127.306 199.798 126.474C203.355 126.646 206.872 127.214 210.395 127.668C221.695 129.193 232.973 130.87 244.22 132.723C244.793 132.802 245.362 132.885 245.922 132.992C246.445 133.049 246.959 133.118 247.472 133.197C249.59 133.522 251.721 133.752 253.808 134.216C258.27 129.797 263.824 126.383 267.418 121.13C267.441 120.846 267.481 120.27 267.5 119.984C262.617 122.936 259.022 127.484 255.676 132C255.856 131.187 256.129 130.395 256.538 129.692C259.138 125.597 262.687 122.248 266.541 119.357C263.903 116.223 260.936 113.393 258.152 110.402C256.898 108.966 255.229 107.991 253.909 106.635C252.504 104.916 249.771 104.884 248.874 102.673C249.74 102.699 250.603 102.782 251.461 102.891C250.722 102.637 249.978 102.391 249.232 102.155ZM150.821 10.1389C152.885 10.7836 155.081 10.9103 157.223 10.7255C155.131 10.2582 152.969 9.94556 150.821 10.1389ZM172.44 16.6104C170.7 23.7806 169.242 31.0444 168.27 38.3577C169.351 34.784 169.995 31.0878 170.862 27.4608C171.456 23.8553 172.525 20.2796 172.44 16.6104ZM173.464 16.1235C173.441 18.0499 173.167 19.9646 172.871 21.8696C172.407 24.5435 171.883 27.2113 171.311 29.8699C169.055 39.5225 166.924 49.2014 164.897 58.9042C163.216 69.4096 161.466 79.9027 159.816 90.4166C161.518 90.5304 163.212 90.8118 164.921 90.8222C164.657 88.267 164.793 85.6598 165.62 83.2128C166.569 78.6272 167.066 73.9621 168.092 69.3943C168.689 66.2689 169.443 63.1741 170.1 60.0659C170.276 59.363 170.44 58.676 170.6 57.986C170.788 56.9558 171.019 55.9385 171.23 54.9248C172.48 49.1188 173.654 43.3024 174.642 37.4524C175.283 34.1245 175.378 30.6694 176.543 27.4651C177.022 26.4876 177.543 25.4672 178.561 24.9637C178.117 24.352 177.642 23.7604 177.135 23.2062C176.033 20.7819 174.753 18.4499 173.464 16.1235ZM167.763 11.9331C170.268 12.1484 172.752 12.5399 175.227 12.9798C174.46 13.3633 173.653 13.6478 172.851 13.9775C173.802 15.2034 174.797 16.4 175.656 17.7061C176.859 20.0025 178.176 22.2464 179.278 24.5997C179.078 25.0108 178.878 25.4286 178.675 25.8618C178.902 27.5551 178.347 29.2031 177.974 30.8401C177.409 33.0552 176.878 35.2819 176.358 37.5105C175.064 42.7592 174.576 48.1725 173.472 53.464C171.779 64.0917 169.165 74.5653 168.063 85.2799C168.01 86.0739 167.585 86.7303 167.222 87.4356C166.349 84.6382 167.57 81.7765 167.421 78.9423C166.938 80.7365 166.734 82.5968 166.367 84.4228C166.285 86.5964 165.955 88.7582 165.888 90.936C176.727 91.8665 187.627 92.069 198.466 93.0948C209.097 93.9182 219.691 95.2292 230.203 97.0106C237.237 98.3087 244.338 99.2416 251.359 100.585C251.163 100.85 250.779 101.379 250.588 101.647C252.93 102.927 254.293 105.251 256.153 107.064C260.007 110.616 263.465 114.568 267.076 118.358C267.68 118.859 268.517 118.937 269.219 119.261C268.965 120.017 268.715 120.801 268.445 121.571C269.607 123.857 270.845 126.268 270.876 128.89C268.787 127.815 269.619 124.911 267.817 123.515C267.749 123.277 267.62 122.799 267.552 122.56C263.788 127.446 258.67 130.964 254.112 135.03C254.736 136.21 255.406 137.366 256.093 138.517C259.06 136.362 261.798 133.881 265.008 132.067C265.269 132.2 265.79 132.466 266.051 132.598C266.943 131.422 267.84 130.16 269.319 129.707C266.397 134.284 261.952 137.718 257.224 140.286C258.571 137.847 261.391 136.983 263.336 135.149C262.264 134.79 261.467 135.595 260.693 136.195C258.915 137.625 257.154 139.09 255.199 140.284C254.475 138.617 253.67 136.972 253.229 135.209C251.266 134.884 249.296 134.579 247.325 134.291C246.238 134.142 245.15 133.988 244.065 133.828C224.662 131.055 205.211 128.421 185.629 127.411C178.952 127.005 172.269 126.696 165.595 126.268C163.835 126.168 162.064 125.816 160.298 126.07C158.259 126.417 156.185 126.123 154.137 126.009C153.347 131.356 152.267 136.676 151.593 142.038C153.317 142.656 155.131 142.962 156.919 143.332C157.904 139.5 157.581 135.111 160.195 131.886C160.326 133.615 159.655 135.249 159.347 136.93C158.927 139.144 158.546 141.362 158.065 143.569C168.951 145.052 179.774 146.965 190.565 149.052C201.399 151.043 212.066 153.845 222.891 155.902C225.8 156.337 228.694 156.845 231.621 157.149C232.531 157.313 233.656 157.146 234.257 158.023C238.356 163.13 242.443 168.254 246.138 173.661C245.877 174.073 245.61 174.492 245.343 174.923C242.897 171.581 240.207 168.428 237.769 165.085C236.197 162.916 234.288 160.932 233.279 158.416C232.1 158.281 230.92 158.146 229.739 157.987C228.654 157.828 227.565 157.672 226.473 157.515C225.747 157.406 225.018 157.302 224.288 157.209C221.604 156.811 218.951 156.266 216.275 155.831C214.686 155.562 213.107 155.235 211.525 154.93C205.547 153.782 199.574 152.601 193.584 151.487C185.945 150.105 178.287 148.733 170.567 147.856C163.931 147.747 157.319 146.884 150.671 147.042C149.263 155.028 148.02 163.044 146.686 171.045C149.902 171.71 152.963 172.944 156.158 173.691C165.078 175.235 173.946 177.086 182.677 179.484C198.142 183.43 213.64 187.247 229.056 191.376C230.175 191.645 231.192 192.184 232.175 192.771C231.936 192.93 231.455 193.254 231.212 193.419C226.419 192.82 221.805 191.309 217.128 190.165C206.457 187.479 195.923 184.28 185.225 181.692C176.044 179.368 166.8 177.282 157.598 175.021C153.837 174.29 150.262 172.856 146.595 171.772C146.368 173.12 146.144 174.471 145.928 175.826C147.964 176.474 150.136 176.181 152.172 176.841C161.792 178.982 171.356 181.393 180.805 184.2C196.961 188.642 212.914 193.835 229.204 197.781C231.314 198.344 233.567 198.032 235.634 198.784C232.903 199.714 229.913 198.796 227.209 198.13L226.944 198.497C228.782 198.949 230.681 199.292 232.392 200.155C230.795 200.619 229.22 199.898 227.671 199.561C217.856 197.077 208.293 193.737 198.601 190.826C193.159 189.186 187.673 187.706 182.226 186.085C178.878 185.179 175.543 184.207 172.189 183.307C165.494 181.539 158.706 180.175 151.969 178.579C151.044 180.915 150.155 183.271 149.477 185.699C147.794 192.19 147.018 198.858 146.254 205.507C146.072 206.192 145.89 206.878 145.697 207.581C145.274 211.49 144.145 215.301 143.98 219.247C143.665 221.608 143.089 223.939 142.61 226.276C141.304 232.699 139.925 239.116 138.32 245.478C138.067 246.182 137.818 246.91 137.498 247.619C136.349 247.167 137.003 245.79 137.061 244.903C139.044 235.813 140.614 226.643 142.265 217.491C143.8 209.447 145.408 201.415 146.845 193.358C148.024 188.287 148.809 183.001 151.32 178.377C149.451 177.906 147.598 177.337 145.834 176.535C142.354 197.995 138.477 219.388 134.417 240.743C133.438 245.307 132.821 249.968 131.287 254.391C130.016 253.37 130.496 251.73 130.587 250.348C131.713 241.208 133.364 232.13 134.89 223.052C140.663 191.168 146.328 159.261 150.855 127.175C152.307 116.835 153.791 106.493 155.798 96.2496C157.853 85.8243 159.956 75.4083 162.327 65.0528C164.427 56.8879 165.346 48.4924 166.852 40.2095C168.278 31.1778 170.023 22.1944 172.19 13.3175C169.33 12.9938 166.419 12.9938 163.623 12.231C160.71 11.2914 157.636 11.908 154.638 11.6798C152.706 11.6468 150.834 11.1219 148.966 10.6778C145.035 19.5541 142.679 29.0061 140.043 38.318C137.806 47.5895 135.281 56.7925 132.55 65.9312C132.588 66.1362 132.661 66.5399 132.698 66.7448C131.449 68.8449 130.996 71.3475 130.587 73.7358C129.833 75.1446 129.458 76.7143 129.029 78.259C122.798 99.8588 117.166 121.629 111.27 143.323C106.668 160.264 102.809 177.398 98.1534 194.319L98.5272 194.551C105.254 172.544 111.626 150.437 117.919 128.306C123.66 108.495 128.854 88.5325 133.756 68.4987C136.356 58.134 138.843 47.7326 141.573 37.4108C142.797 31.8672 144.01 26.3047 145.656 20.8688L146.354 21.2077C141.468 42.1493 136.273 63.0138 131.111 83.8894C125.584 106.103 119.179 128.084 112.828 150.074C106.818 171.086 100.485 192.012 93.807 212.824C89.8258 224.704 87.6945 237.171 82.9872 248.806C81.8145 249.057 82.4416 247.711 82.4312 247.148C85.2127 236.889 88.5394 226.796 91.3888 216.561C88.9333 215.625 86.6827 214.267 84.5294 212.781C75.4445 207.746 66.2513 202.871 56.8152 198.509C41.3346 191.505 25.3786 185.595 9.91877 178.548C9.14982 178.634 8.37964 178.695 7.60212 178.787C4.62968 172.511 1.93008 166.029 0.534708 159.2C0.389114 155.315 0.753098 151.455 0.870552 147.579C1.26879 147.125 1.66092 146.679 2.04081 146.243C3.98736 150.28 5.22246 154.619 6.81237 158.81C8.10986 162.152 8.91552 165.686 10.6798 168.838C10.2124 168.831 9.27828 168.824 8.8152 168.821C19.832 173.856 31.1069 178.346 42.1292 183.393C51.5323 187.632 60.786 192.184 70.0606 196.686C77.0313 200.026 83.9715 203.488 91.2922 205.997C90.6401 206.101 89.9776 206.168 89.3089 206.223C89.5267 206.621 89.7335 207.043 89.9194 207.483C84.7729 205.623 79.8955 203.128 74.9098 200.889C55.0161 191.945 35.2472 182.714 15.4978 173.451C13.8877 172.719 12.37 171.777 10.662 171.282C10.7018 173.168 10.4027 175.035 10.325 176.921C16.4895 178.952 22.3211 181.845 28.2807 184.402C38.8442 188.923 49.3496 193.591 59.7968 198.387C68.5857 202.345 77.1678 206.731 85.8024 211.007C87.8475 211.955 89.9323 212.811 92.0416 213.607C92.3902 212.279 92.7224 210.964 93.0889 209.655C92.0434 208.939 90.9851 208.229 89.8705 207.618C90.1072 207.269 90.3354 206.933 90.5581 206.602C91.4506 207.33 92.3835 208.034 93.3176 208.719C95.7212 199.121 98.3027 189.571 100.665 179.961C99.4075 179.435 98.025 179.276 96.7917 178.707C92.7347 176.236 88.425 174.223 84.1752 172.107C74.8064 167.471 65.6114 162.49 56.1411 158.052C46.0211 153.327 35.7555 148.908 25.6784 144.087C23.9423 143.34 22.2649 141.85 20.2718 142.701C19.2086 143.711 17.7056 143.896 16.3793 144.395C14.0847 145.102 11.9149 146.166 9.60678 146.857C9.04337 147.119 8.48119 146.809 7.92206 146.684C6.67289 147.176 5.46165 147.821 4.1354 148.123C3.96839 148.001 3.64478 147.759 3.48084 147.634C4.85908 146.627 6.58724 146.281 8.08662 145.513C12.028 143.876 16.0056 141.644 20.3673 141.655C20.4682 141.414 20.6811 140.934 20.7894 140.692C41.4514 149.418 61.7813 158.955 81.6738 169.312C88.0928 172.552 94.1992 176.462 100.887 179.141C103.578 168.503 106.159 157.838 108.932 147.222C115.569 122.694 121.884 98.0787 129.01 73.6905C119.502 70.5009 109.862 67.7518 100.291 64.7634C95.3388 63.1356 90.3978 61.4741 85.4219 59.9142C74.3048 56.5612 63.236 53.0443 52.0565 49.911C48.235 48.7909 44.3358 47.9039 40.5779 46.5709C39.3385 46.3054 39.6327 44.9309 39.3281 44.0145C38.6264 41.945 37.6085 40.0033 36.7692 37.9944C36.916 37.869 37.2151 37.6096 37.3613 37.4836C41.26 37.9399 45.046 39.0594 48.8773 39.881C76.9108 46.6186 104.789 54.4801 131.394 65.6933C134.047 56.1838 136.811 46.7037 139.193 37.1196C134.817 35.4189 130.533 33.4712 126.149 31.7828C118.34 28.7638 110.775 25.1736 103.071 21.8989C87.0443 15.6384 70.9678 9.41579 55.3984 2.06148C50.9272 4.35978 46.7619 7.2692 42.084 9.14907C42.2724 8.84259 42.648 8.23024 42.8358 7.92437C44.8301 6.88258 46.8451 5.86221 48.7128 4.61426C47.5963 4.98375 46.5319 5.5025 45.473 6.03105C42.3109 7.9311 38.709 9.08545 35.851 11.4712C35.5769 11.5385 35.0404 11.6749 34.7706 11.7453C35.55 10.3603 36.8083 9.41396 38.2 8.73309C42.7092 6.44947 47.1363 3.98967 51.8308 2.10369C52.7508 1.74154 53.6268 1.29619 54.4606 0.790896C55.084 0.684454 55.7031 0.593305 56.3154 0.520508C56.8666 0.985429 57.4557 1.42894 58.1684 1.61735C68.7649 5.04064 79.0164 9.46228 89.0789 14.2192C94.9296 16.8808 100.663 19.8257 106.685 22.0922C117.724 26.3707 128.661 30.9331 139.763 35.0519C138.9 35.2018 138.026 35.2727 137.151 35.3541C137.915 35.6496 138.671 35.9463 139.44 36.2271C141.19 30.0259 142.908 23.8027 145.055 17.7275C145.953 14.7979 147.624 12.1411 148.153 9.10564C153.006 8.75144 157.857 9.53263 162.546 10.7561C164.322 10.9274 166.184 10.9843 167.763 11.9331Z" fill="#666666"/>
</g>
<path fill-rule="evenodd" clip-rule="evenodd" d="M161.243 22.2274C161.712 23.0606 161.835 24.0241 161.632 24.9656C159.412 35.3602 157.623 45.8503 156.188 56.3814C156.048 56.894 155.899 57.4128 155.741 57.9431C155.372 57.4128 154.914 56.8922 155.107 56.207C155.72 48.7652 156.455 41.3357 157.522 33.9453C157.742 33.6614 158.187 33.0962 158.412 32.8154C158.345 34.431 157.988 36.0368 158.077 37.6701C158.591 35.8563 158.829 33.9826 159.176 32.1425C159.863 28.8342 160.499 25.5143 161.243 22.2274Z" fill="#666666"/>
<path fill-rule="evenodd" clip-rule="evenodd" d="M149.401 38.063C149.587 37.0432 149.428 35.7861 150.467 35.1664C150.461 40.1416 149.398 45.0478 148.604 49.9441C144.834 68.9196 139.801 87.6131 135.069 106.365C134.608 108.223 134.125 110.07 133.621 111.921C133.234 113.638 132.871 115.389 132.008 116.956C131.573 116.116 131.728 115.219 131.869 114.349C132.255 113.169 132.548 111.968 132.862 110.78C138.071 90.7618 141.807 70.4001 146.514 50.2677C147.132 48.1309 147.132 45.7219 148.531 43.8983C149.057 41.997 149.137 40.0083 149.401 38.063Z" fill="#666666"/>
<path fill-rule="evenodd" clip-rule="evenodd" d="M227.634 109.751C230.075 108.452 232.821 109.485 235.371 109.809C235.742 110.317 236.086 110.848 236.404 111.409C234.084 111.297 231.87 110.531 229.603 110.085C229.207 110.9 228.832 111.734 228.497 112.59C230.464 113.211 232.537 113.437 234.457 114.222C232.538 115.536 230.19 115.214 228.022 114.969C227.848 116.05 227.973 117.147 228.01 118.243C230.067 118.967 232.368 118.502 234.331 119.544C232.305 121.358 229.603 119.691 227.405 119.145C227.313 118.681 227.22 118.228 227.126 117.786C226.896 117.633 226.44 117.324 226.214 117.167C225.922 114.652 225.969 111.803 227.634 109.751Z" fill="#666666"/>
<path fill-rule="evenodd" clip-rule="evenodd" d="M213.574 112.336C215.621 110.698 217.602 108.769 220.195 108.071C220.544 110.452 219.7 112.761 219.314 115.089C219.131 116.277 218.746 117.421 218.074 118.445C217.244 115.473 218.592 112.521 219.546 109.762C218.838 110.282 218.12 110.837 217.392 111.362C216.267 111.934 215.142 112.524 214.008 113.091C213.932 113.528 213.852 113.981 213.77 114.438C213.281 114.106 212.788 113.783 212.296 113.466C212.452 111.494 211.465 109.699 210.699 107.956C210.362 108.643 209.995 109.387 210.416 110.145C210.034 111.052 209.691 111.987 209.357 112.927C209.116 114.571 208.949 116.291 207.869 117.653C206.979 114.982 207.775 111.94 209.024 109.504C209.336 108.752 209.684 108.007 210.03 107.29C210.369 107.291 211.044 107.285 211.383 107.287C212.292 108.884 212.892 110.627 213.574 112.336Z" fill="#666666"/>
<path fill-rule="evenodd" clip-rule="evenodd" d="M109.264 36.0051C111.471 35.5892 114.026 36.9148 113.956 39.3832C112.844 38.6319 111.768 37.8385 110.644 37.1032C109.737 37.3779 108.833 37.6911 107.938 38.0343C108.824 39.9502 110.284 41.7016 110.49 43.8647C109.483 46.6163 105.718 46.3661 103.913 44.5676C103.71 43.2799 103.885 41.9659 104.716 40.9205C105.172 42.0314 104.87 43.6941 106.206 44.2355C106.861 44.5395 107.573 44.7034 108.254 44.9292C108.614 44.2098 108.93 43.4849 109.184 42.7459C107.553 42.3226 105.831 41.0709 106.149 39.169C106.85 37.8789 107.505 35.9648 109.264 36.0051Z" fill="#666666"/>
<path fill-rule="evenodd" clip-rule="evenodd" d="M151.263 67.0746C152.312 67.5016 152.066 68.8254 152.026 69.7301C151.463 74.0331 150.343 78.2431 149.453 82.4928C149.765 82.1888 150.396 81.5789 150.708 81.2749C149.39 88.743 147.21 96.0398 145.533 103.439C145.275 104.115 144.969 104.782 144.655 105.461C144.533 105.221 144.293 104.739 144.176 104.502C145.23 100.378 145.715 96.1352 146.605 91.9809C147.923 85.223 149.386 78.4951 150.787 71.7538C151.21 70.2177 150.862 68.596 151.263 67.0746Z" fill="#666666"/>
<path fill-rule="evenodd" clip-rule="evenodd" d="M252.583 138.958C252.831 139.178 253.326 139.621 253.575 139.848C243.705 139.772 233.977 137.954 224.157 137.167C214.819 136.408 205.466 135.818 196.132 135.002C184.724 134.101 173.289 133.367 161.956 131.7C159.15 131.193 156.132 131.418 153.522 130.102C156.941 129.575 160.41 130.098 163.847 130.081C166.592 130.174 169.34 130.246 172.087 130.396L172.138 131.16C170.72 131.189 169.289 131.131 167.874 131.336C176.35 132.545 184.927 132.926 193.451 133.66C204.107 134.578 214.779 135.239 225.431 136.207C234.49 137.048 243.47 138.713 252.583 138.958Z" fill="#666666"/>
<path fill-rule="evenodd" clip-rule="evenodd" d="M89.0379 29.8877C87.2981 30.6139 86.8515 32.6246 86.2686 34.2353C88.4164 35.4766 91.1631 34.729 92.9457 33.1893C92.9952 32.7812 93.0992 31.9744 93.1488 31.5663C92.0311 30.6499 90.6027 29.2246 89.0379 29.8877ZM87.552 28.6918C89.4184 28.7939 91.3227 28.7364 93.1396 29.2289C94.2933 30.5772 94.6616 32.7568 93.421 34.1876C92.7787 35.5304 91.36 36.0253 90.1488 36.7049C90.0277 37.2427 89.9824 37.8091 89.9121 38.3768C91.4475 37.9981 91.0297 39.1201 90.7869 40.0157C90.065 39.7973 89.2783 39.7073 88.6256 39.2859C87.8585 38.468 87.9649 37.2861 87.9649 36.2584C87.2547 35.9635 86.5292 35.7072 85.7932 35.4668C85.6171 36.2828 85.4421 37.0885 85.2543 37.9211C84.6468 37.8054 84.0278 37.7241 83.4136 37.6274C84.5587 34.5467 85.8373 31.4984 87.552 28.6918Z" fill="#666666"/>
<path fill-rule="evenodd" clip-rule="evenodd" d="M101.04 34.2946C101.142 34.527 101.337 34.9962 101.435 35.2256C100.252 37.3416 100.09 39.9079 98.4245 41.7798C98.318 42.1065 98.1009 42.7573 97.9901 43.0809C97.7552 42.4704 97.2151 41.8691 97.4286 41.1803C98.0128 38.6257 99.2815 36.2221 101.04 34.2946Z" fill="#666666"/>
<path fill-rule="evenodd" clip-rule="evenodd" d="M74.1501 30.5246C73.8467 31.1271 74.0571 31.4104 74.7765 31.3645C75.094 30.7411 74.8872 30.4609 74.1501 30.5246ZM77.0302 25.3682C75.8256 26.6688 74.5245 27.8843 73.3677 29.2362C74.6493 29.7342 75.8556 30.3832 77.0198 31.1112C77.3403 29.205 77.7441 27.231 77.0302 25.3682ZM71.5991 28.8551C73.4136 27.3729 74.7716 24.6243 77.3764 24.5919C79.4147 26.5703 78.2194 29.7061 77.9264 32.1512C77.3379 33.5967 76.731 35.0355 75.8128 36.3196C75.146 35.3139 75.8942 34.3014 76.1798 33.3275C74.7147 32.4809 73.2349 31.6306 71.6022 31.14C71.1422 31.7786 70.6809 32.4277 70.2105 33.0822C69.9878 32.9464 69.5425 32.6742 69.3241 32.5408C70.0723 31.2953 70.8834 30.1049 71.5991 28.8551Z" fill="#666666"/>
<path fill-rule="evenodd" clip-rule="evenodd" d="M197.754 110.242C197.79 111.797 197.918 113.469 197.127 114.889C196.601 115.882 195.551 116.398 194.681 117.058C195.997 116.713 197.572 116.458 198.233 115.105C199.427 113.629 198.437 111.7 197.754 110.242ZM193.356 107.623C192.134 108.224 190.984 108.97 190.172 110.1C190.214 111.534 189.84 113.068 190.536 114.411C191.437 115.71 193.304 116.44 194.754 115.632C198.072 114.007 197.049 108.056 193.356 107.623ZM195.68 107.02C197.175 107.797 198.27 109.212 199.104 110.65C199.87 112.178 200.302 114.258 199.048 115.68C197.464 118.254 193.881 118.405 191.255 117.622C189.294 117.293 188.099 115.151 188.347 113.272C188.639 110.785 189.76 108.112 192.204 107.077C193.258 106.365 194.579 106.521 195.68 107.02Z" fill="#666666"/>
<path fill-rule="evenodd" clip-rule="evenodd" d="M68.4114 22.5426C67.5097 23.6223 66.5119 24.6231 65.4805 25.5951C66.8588 24.9773 68.3753 24.2628 68.4114 22.5426ZM65.7491 20.24C64.6669 19.9635 63.7683 20.7526 62.8727 21.2267C62.5748 22.4606 61.6229 23.5599 61.7648 24.8837C62.951 25.7517 64.3782 24.5099 65.5888 24.2297C66.2905 23.388 66.942 22.5242 67.525 21.6127C66.997 21.0976 66.6282 20.1788 65.7491 20.24ZM63.3933 19.3689C64.3806 18.2353 65.932 18.9559 67.0178 19.5041C68.6512 20.5807 70.1408 23.076 68.7435 24.888C66.6618 26.9807 63.4392 26.7831 60.772 26.2405C60.3713 27.4334 59.9767 28.6428 59.5253 29.8308C59.2298 29.6265 58.6425 29.2142 58.3434 29.0074C59.8691 25.723 60.3689 21.7179 63.3933 19.3689Z" fill="#666666"/>
<path fill-rule="evenodd" clip-rule="evenodd" d="M175.751 105.812C174.797 107.717 174.797 109.886 174.448 111.946C176.4 112.25 178.598 112.158 180.093 110.688C181.516 109.478 180.871 107.413 180.061 106.045C178.672 105.478 177.197 105.492 175.751 105.812ZM178.999 104.461C181.19 104.895 182.679 107.366 182.081 109.517C181.678 111.085 180.363 112.207 178.923 112.855C178.688 113.116 178.209 113.645 177.971 113.911C178.651 114.854 179.839 114.881 180.884 115.066C181.013 115.388 181.269 116.038 181.398 116.36C180.805 116.674 180.204 116.981 179.587 117.277C178.119 116.237 177.044 114.801 175.987 113.375C175.574 113.34 174.752 113.268 174.339 113.233C174.238 113.94 174.135 114.652 174.038 115.38C173.71 115.966 173.376 116.56 173.022 117.158C172.078 115.697 172.56 113.921 172.623 112.309C172.958 109.839 172.888 107.107 174.585 105.095C176.053 104.873 177.499 104.296 178.999 104.461Z" fill="#666666"/>
<path fill-rule="evenodd" clip-rule="evenodd" d="M34.324 16.3382C34.6336 20.2705 34.8275 24.2235 35.5218 28.1172C35.9354 30.4834 35.8448 32.9377 36.519 35.2629C36.8909 32.8423 36.6566 30.391 36.5024 27.971C36.081 24.0449 35.7898 20.0423 34.324 16.3382ZM33.8866 11.355C36.5128 18.4622 37.7889 26.0936 37.6825 33.6767C37.8629 35.2905 36.5031 36.3396 35.8314 37.6561C34.8532 35.1143 35.2612 32.3125 34.759 29.6698C33.8438 24.8762 33.5098 19.9946 33.1929 15.1306C33.2645 13.8955 32.5879 12.1007 33.8866 11.355Z" fill="#666666"/>
<path fill-rule="evenodd" clip-rule="evenodd" d="M245.817 175.299C245.915 174.977 246.103 174.325 246.203 174C247.21 176.077 247.867 178.309 248.786 180.426C249.12 181.117 249.22 181.882 249.185 182.659C247.954 181.931 247.752 180.493 247.281 179.282C246.805 177.949 246.362 176.603 245.817 175.299Z" fill="#666666"/>
<path fill-rule="evenodd" clip-rule="evenodd" d="M244.638 174.178C245.041 174.953 244.848 175.795 244.5 176.566C242.037 181.136 239.432 185.711 235.881 189.547C234.996 190.55 234.234 191.658 233.425 192.74C234.406 194.643 236.161 196.111 236.642 198.27C236.836 198.264 237.223 198.258 237.413 198.252C241.7 195.157 244.953 190.807 247.154 186.042C247.808 185.13 248.256 183.411 249.693 183.858C246.513 189.29 243.62 195.285 238.183 198.858C237.528 199.427 236.648 199.078 235.871 199.078C234.557 197.414 233.759 195.438 232.856 193.542C232.144 192.074 233.089 190.575 233.65 189.247C236.228 184.818 239.967 181.074 241.821 176.248C241.928 176.523 242.134 177.074 242.234 177.349C240.604 182.114 236.565 185.528 234.499 190.067C238.45 185.167 242.02 179.918 244.638 174.178Z" fill="#666666"/>
<path fill-rule="evenodd" clip-rule="evenodd" d="M139.954 105.119C140.189 105.133 140.656 105.157 140.892 105.171C137.809 113.773 136.268 122.808 134.272 131.696C134.486 132.197 134.852 132.731 134.638 133.318C132.402 143.606 130.156 153.893 127.751 164.142C127.522 164.438 127.07 165.021 126.842 165.317C126.724 163.413 127.22 161.556 127.576 159.711C129.484 149.776 131.495 139.864 133.659 129.981C135.587 121.649 137.062 113.184 139.954 105.119Z" fill="#666666"/>
<path fill-rule="evenodd" clip-rule="evenodd" d="M216.747 171.035C216.728 172.368 216.377 173.721 216.7 175.05C218.236 177.269 222.077 176.56 223.024 174.136C223.409 172.621 222.428 171.29 221.661 170.102C219.966 169.587 217.95 169.47 216.747 171.035ZM219.542 168.223C222.028 167.792 224.564 169.923 224.636 172.436C224.51 174.399 223.669 176.321 222.288 177.74C220.807 178.958 218.363 179.368 216.823 178.089C215.862 176.615 215.131 174.891 215.061 173.127C214.97 171.677 215.955 170.547 216.74 169.465C217.667 169.024 218.531 168.432 219.542 168.223Z" fill="#666666"/>
<mask id="mask1_99_843" style="mask-type:alpha" maskUnits="userSpaceOnUse" x="119" y="123" width="95" height="102">
<path d="M119.778 123.955H213.108V224.471H119.778V123.955Z" fill="white"/>
</mask>
<g mask="url(#mask1_99_843)">
<path fill-rule="evenodd" clip-rule="evenodd" d="M212.098 165.314C212.351 165.519 212.859 165.925 213.108 166.127C211.563 168.584 209.097 170.464 206.269 171.173C206.173 171.692 206.073 172.209 205.977 172.752C205.61 173.706 205.254 174.661 204.833 175.605C203.831 174.101 204.812 172.311 205.36 170.837C205.149 170.691 204.735 170.393 204.525 170.247C204.254 168.452 203.782 166.691 203.623 164.89C203.416 163.885 204.918 163.693 205.356 163.051C205.618 165.385 205.693 167.738 205.775 170.09C208.041 168.717 210.11 167.047 212.098 165.314Z" fill="#666666"/>
<path fill-rule="evenodd" clip-rule="evenodd" d="M143.507 123.955C143.999 125.904 143.09 127.815 142.766 129.725C140.139 140.251 138.279 150.948 136.423 161.637C132.777 181.27 129.307 200.962 124.558 220.379C123.317 225.187 122.126 230.02 120.584 234.742C120.383 234.84 119.982 235.042 119.778 235.146C120.788 230.099 122.361 225.193 123.519 220.189C128.117 201.14 131.565 181.833 135.175 162.578C137.112 151.796 138.926 140.977 141.618 130.347C142.214 128.208 142.317 125.882 143.507 123.955Z" fill="#666666"/>
</g>
<path fill-rule="evenodd" clip-rule="evenodd" d="M189.876 166.184C192.183 164.648 194.411 162.957 196.946 161.824C196.972 162.063 197.031 162.539 197.057 162.779C195.712 164.221 194.07 165.333 192.406 166.38C192.779 167.691 193.103 169.098 194.018 170.168C194.959 170.12 195.89 170.184 196.752 170.595C196.546 170.937 196.137 171.622 195.931 171.964C194.889 171.793 193.705 171.924 192.824 171.236C191.482 170.445 191.149 168.846 190.724 167.482C190.169 168.862 189.604 170.258 188.882 171.569C188.581 171.528 187.99 171.442 187.689 171.401C187.832 167.705 188.202 163.663 190.527 160.639C190.771 160.658 191.266 160.702 191.514 160.724C190.965 162.538 190.282 164.32 189.876 166.184Z" fill="#666666"/>
<mask id="mask2_99_843" style="mask-type:alpha" maskUnits="userSpaceOnUse" x="98" y="125" width="83" height="100">
<path d="M98.8424 125.793H180.513V224.471H98.8424V125.793Z" fill="white"/>
</mask>
<g mask="url(#mask2_99_843)">
<path fill-rule="evenodd" clip-rule="evenodd" d="M172.655 160.735C172.328 161.699 171.846 162.62 171.656 163.637C171.47 164.978 172.112 166.236 172.727 167.385C173.948 167.625 175.188 167.665 176.408 167.439C176.969 166.542 177.76 165.727 177.986 164.682C178.05 162.837 177.405 160.651 175.598 159.824C174.511 159.521 173.548 160.229 172.655 160.735ZM177.035 159.086C176.723 159.683 176.931 159.971 177.654 159.945C177.973 159.328 177.765 159.041 177.035 159.086ZM177.423 158.249C180.907 160.056 181.662 165.677 178.569 168.246C176.847 169.464 174.517 169.489 172.599 168.736C170.882 168.29 169.697 166.477 169.746 164.748C169.724 162.025 171.863 159.883 173.969 158.465C174.979 157.705 176.311 157.826 177.423 158.249Z" fill="#666666"/>
<path fill-rule="evenodd" clip-rule="evenodd" d="M130.442 125.793C130.677 127.457 129.701 128.928 129.248 130.473C122.413 149.939 118.053 170.139 112.524 189.987C109.185 202.149 105.678 214.267 101.727 226.251C100.848 228.619 100.413 231.182 99.0772 233.372C98.5113 232.203 99.1035 230.992 99.4394 229.867C99.9838 228.258 100.477 226.637 101.02 225.04C107.291 204.125 113.081 183.069 118.697 161.978C121.707 151.764 124.332 141.423 127.903 131.389C128.611 129.458 129.086 127.39 130.442 125.793Z" fill="#666666"/>
<path fill-rule="evenodd" clip-rule="evenodd" d="M161.41 155.501C163.638 155.392 166.014 155.482 167.945 156.735C166.806 157.62 165.345 157.339 164.008 157.388C163.731 158.213 163.462 159.049 163.17 159.886C162.52 162.354 163.012 165.055 161.772 167.365C160.869 165.976 160.657 164.287 161.227 162.738C161.694 160.802 162.276 158.898 163.041 157.066C161.714 157.014 160.348 157.002 159.122 156.398C159.811 155.912 160.558 155.497 161.41 155.501Z" fill="#666666"/>
<path fill-rule="evenodd" clip-rule="evenodd" d="M108.781 228.863C108.291 229.255 107.795 230.491 108.382 230.937C108.893 230.527 109.364 229.292 108.781 228.863ZM109.384 226.276C108.913 226.68 108.376 227.921 108.977 228.368C109.487 227.946 109.963 226.698 109.384 226.276ZM109.991 223.688C109.51 224.098 108.993 225.309 109.561 225.793C110.11 225.389 110.531 224.153 109.991 223.688ZM120.103 188.593C120.584 187.534 120.741 186.238 121.82 185.589C121.55 188.623 119.837 191.248 118.854 194.074C115.697 202.326 113.052 210.78 110.941 219.363C111.264 219.039 111.904 218.403 112.227 218.079C111.065 224.196 109.612 230.264 108.176 236.333C107.432 238.92 107.145 241.728 105.543 243.986C104.651 242.524 105.304 240.847 105.536 239.306C108.942 222.043 113.153 204.81 120.103 188.593Z" fill="#666666"/>
</g>
<path fill-rule="evenodd" clip-rule="evenodd" d="M88.9774 186.354C89.3095 186.397 89.9666 186.476 90.2957 186.513C89.5971 187.027 88.8807 187.534 88.1466 188.024C86.8088 188.844 85.3883 189.541 84.0339 190.348C83.2399 191.15 82.6881 192.153 82.0397 193.095C81.7858 193.077 81.2768 193.052 81.0229 193.04C81.3625 191.798 81.8525 190.587 82.7866 189.688C82.0164 187.339 81.8531 184.776 82.5829 182.396C82.8563 182.696 83.3995 183.289 83.6724 183.589C83.7482 185.363 83.3806 187.131 83.4412 188.917C85.4709 188.477 87.1489 187.235 88.9774 186.354Z" fill="#666666"/>
<path fill-rule="evenodd" clip-rule="evenodd" d="M72.4641 177.618C74.503 178.554 76.4428 179.68 78.4616 180.659C76.4569 181.833 74.481 179.716 72.6874 178.982C72.2243 179.661 71.76 180.347 71.292 181.056C73.0012 182.047 74.6486 183.136 76.2526 184.28C75.9846 184.384 75.4457 184.586 75.1808 184.684C73.5817 184.127 72.1056 183.295 70.7188 182.335C70.282 183.252 69.8459 184.194 69.5424 185.185C71.2987 185.791 72.9321 186.672 74.4418 187.742C74.2993 187.932 74.0093 188.317 73.8668 188.507C71.9423 187.229 69.4599 186.886 67.8381 185.161C68.6927 182.286 70.8834 180.096 72.4641 177.618Z" fill="#666666"/>
<path fill-rule="evenodd" clip-rule="evenodd" d="M65.831 174.291C66.2782 175.002 66.1846 175.844 65.82 176.578C64.7146 178.676 63.9108 181.478 61.2265 182.01C60.2617 179.484 59.3184 176.86 59.2768 174.132C58.1164 175.716 57.1933 177.453 56.3038 179.209C55.9741 179.294 55.3097 179.466 54.9751 179.551C55.3715 176.664 57.167 173.389 60.2085 172.631C60.5615 175.29 60.8619 178.028 62.1263 180.45C63.4226 178.432 64.2466 176.125 65.831 174.291Z" fill="#666666"/>
<path fill-rule="evenodd" clip-rule="evenodd" d="M44.3132 174.274C43.7308 174.821 43.8262 175.228 44.5976 175.487C45.1935 174.919 45.0956 174.517 44.3132 174.274ZM49.5129 168.876C48.8211 168.804 48.1243 168.74 47.4239 168.698C46.4518 170.225 45.7691 171.91 44.9249 173.52C46.2634 174.625 47.8692 175.354 49.6231 175.342C51.3231 173.446 50.8594 170.8 49.5129 168.876ZM47.9909 166.592C49.6567 167.864 52.1954 168.61 52.675 170.914C53.1283 172.824 52.1465 174.667 50.8441 176.016C49.6133 176.529 48.35 177.374 46.9485 176.97C45.5813 176.639 43.9749 176.627 42.9398 175.559C43.0126 172.352 45.8603 170.276 46.702 167.349C47.1412 167.085 47.5682 166.831 47.9909 166.592Z" fill="#666666"/>
<path fill-rule="evenodd" clip-rule="evenodd" d="M29.5281 163.99C29.3507 164.704 30.0928 165.886 30.7418 166.27C31.3872 165.545 30.324 164.17 29.5281 163.99ZM27.5216 158.596C29.637 157.932 32.0956 157.696 33.9846 159.087C34.0899 159.937 34.1896 160.795 34.2244 161.668C33.0542 160.984 31.9812 160.116 30.7534 159.541C29.6688 159.078 28.6166 159.7 27.6183 160.116C27.8587 160.874 28.1003 161.639 28.3597 162.404C29.9551 163.053 32.0332 164.205 31.8429 166.207C31.2196 167.575 30.1588 168.927 28.6081 169.277C27.343 169.471 26.0437 169.086 24.9162 168.521C23.3973 167.589 22.9893 165.717 22.884 164.072C24.198 163.935 24.1503 165.283 24.3914 166.222C24.8116 166.685 25.2166 167.163 25.6173 167.655C27.0059 168.067 28.7702 168.558 29.8273 167.203C29.1727 165.082 27.5259 163.489 26.637 161.499C26.1801 160.406 27.0469 159.481 27.5216 158.596Z" fill="#666666"/>
<path fill-rule="evenodd" clip-rule="evenodd" d="M38.2336 165.1C38.9414 164.328 39.5366 163.467 40.2267 162.695C40.3123 164.524 39.3286 166.109 38.5787 167.712C37.8905 168.862 37.4965 170.269 36.3935 171.137C36.2908 170.863 36.0809 170.311 35.9751 170.04C36.6994 168.372 37.4757 166.74 38.2336 165.1Z" fill="#666666"/>
</g>
<defs>
<clipPath id="clip0_99_843">
<rect width="271" height="224.508" fill="white"/>
</clipPath>
</defs>
</svg>
