<svg width="113" height="99" viewBox="0 0 113 99" fill="none" xmlns="http://www.w3.org/2000/svg">
<g opacity="0.2" clip-path="url(#clip0_1_443)">
<path fill-rule="evenodd" clip-rule="evenodd" d="M60.102 48.6462C60.5811 48.1879 61.382 47.9118 61.9488 48.3938C62.106 49.0517 61.6745 49.6778 61.605 50.3302C61.2247 53.2598 60.3544 56.095 59.4365 58.8955C58.8879 60.5558 57.6519 62.31 58.6319 64.0613C58.215 64.3404 57.6372 64.7547 57.1765 64.3228C56.4853 63.6291 56.105 62.6918 55.721 61.8075C55.8819 61.7132 56.1927 61.5282 56.35 61.4371C56.4122 60.9346 56.4816 60.4322 56.5584 59.9356C55.977 59.2864 55.6149 58.4929 55.5418 57.6203C54.8543 57.4587 54.1924 57.2206 53.5744 56.8827C52.5614 57.4261 51.563 58.3225 50.3379 58.1725C49.5078 58.0844 49.3944 57.1296 49.1385 56.5093C48.9337 56.4538 48.5277 56.3448 48.3266 56.2921C48.3156 55.7337 48.3047 55.1786 48.3193 54.626C50.6707 54.479 52.5504 52.9833 54.5837 51.9608C56.4304 50.8736 58.4893 50.0921 60.102 48.6462Z" fill="white"/>
<path fill-rule="evenodd" clip-rule="evenodd" d="M110.872 77.5364C110.608 77.8922 110.689 78.0861 111.106 78.1124C111.351 77.7511 111.274 77.5602 110.872 77.5364ZM111.179 76.0349C110.901 76.3731 110.97 76.5699 111.384 76.6288C111.651 76.2846 111.581 76.0879 111.179 76.0349ZM0.995039 63.3529C0.989188 65.1953 1.30661 67.0259 1.25651 68.8713C1.85296 74.5425 3.15191 80.2283 5.67558 85.3645C5.29526 83.8187 4.6882 82.3439 4.26399 80.8098C3.06085 76.711 2.25267 72.503 1.72095 68.266C1.46496 66.6292 1.4975 64.9455 0.995039 63.3529ZM105.547 49.3661C106.443 51.6671 107.657 53.8295 108.63 56.0982C109.742 58.3725 110.692 60.7466 112.067 62.8797C111.537 61.2257 110.901 59.5859 110.005 58.0931C109.979 57.9552 109.928 57.6788 109.899 57.5409C109.822 57.388 109.661 57.0794 109.584 56.9236C108.528 54.7492 107.394 52.6161 106.238 50.4976C106.012 50.1125 105.781 49.7337 105.547 49.3661ZM98.822 39.9283C100.08 42.4139 101.228 44.9617 102.11 47.606C103.96 52.9247 104.757 58.5458 104.951 64.1523C104.79 70.0203 103.96 75.9058 101.989 81.4592C100.014 87.1422 97.0776 92.4959 93.2926 97.1768C91.4971 99.4657 89.3834 101.47 87.5 103.682C82.1535 108.701 75.6003 112.453 68.5241 114.404C62.4608 116.088 56.1855 117.487 49.8516 116.999C50.0967 116.834 50.349 116.679 50.6086 116.523C46.0594 116.473 41.5577 115.601 37.2095 114.296C34.6826 113.594 32.3311 112.401 29.8261 111.636C29.0435 111.29 28.3853 110.72 27.6356 110.32C28.7108 111.434 30.0053 112.301 31.2267 113.247C33.4867 114.892 35.7285 116.585 38.1494 117.995C39.7072 118.836 40.9177 120.193 42.4865 121.025C43.5726 121.592 44.7026 122.068 45.7961 122.629C47.2625 122.529 48.7216 122.218 50.199 122.382C49.9248 123.099 49.1641 123.008 48.5424 123.099C49.709 122.994 50.8866 123.202 52.0568 123.047C52.0604 123.149 52.0677 123.358 52.0714 123.461L52.1007 122.946C53.8377 123.308 55.6113 123.023 57.3667 123.173C69.1348 122.935 80.7566 118.753 90.0453 111.534C94.6238 108.096 98.4124 103.721 101.66 99.0338C105.141 94.0209 107.5 88.3146 109.164 82.4642C110.901 76.5991 111.694 70.496 112.024 64.4079C112.002 64.2814 111.965 64.0346 111.947 63.9084C109.153 59.0158 107.068 53.768 104.53 48.7434C102.899 45.6492 101.565 42.2464 98.822 39.9283ZM96.9167 36.5756C97.5274 37.7154 98.1747 38.8407 98.8805 39.9312C98.789 38.5854 97.692 37.5922 96.9167 36.5756ZM95.3515 34.2245C95.2455 34.6242 95.3954 34.7946 95.8123 34.7387C95.9074 34.3423 95.7538 34.1718 95.3515 34.2245ZM92.5539 20.2173C92.1736 20.8901 91.786 21.5542 91.3764 22.2037C92.4296 23.326 93.5998 24.3577 94.9895 25.0452C94.9748 24.0256 94.9748 23.009 94.9383 21.992C94.0131 21.5809 93.0769 21.1224 92.5539 20.2173ZM97.5749 20.373C97.2202 21.0547 96.5327 21.4281 95.8525 21.7042C95.8306 22.9 95.9659 24.1196 95.6623 25.292C96.9789 23.6171 98.9938 22.5592 100.091 20.6905C100.12 19.5502 99.952 18.4162 99.9556 17.2789C99.1182 18.275 98.2113 19.2273 97.5749 20.373ZM37.1181 17.1703C32.642 18.4542 28.2207 19.9763 23.986 21.9218C21.4298 23.0002 19.466 25.0247 17.3925 26.8023C8.80594 34.8272 3.09011 45.8664 1.54724 57.5259C1.67962 57.6203 1.94695 57.8111 2.07933 57.9081C1.75898 59.3833 1.79701 60.8995 1.83541 62.3981C2.33202 68.5509 3.23419 74.7012 4.98441 80.6364C6.67027 86.3665 8.90102 92.067 12.6604 96.7801C16.0138 100.979 20.0694 104.62 24.5784 107.544C34.8471 114.299 47.6099 117.179 59.773 115.383C71.0986 113.805 81.8646 108.354 89.771 100.083C98.1637 91.5378 103.265 79.8992 104.084 67.9632C104.081 64.6339 104.285 61.2783 103.784 57.9728C102.947 51.094 100.658 44.4121 97.1836 38.4238C94.4665 33.869 91.1753 29.5908 87.1197 26.1529C84.0954 23.2028 80.5152 20.8609 76.818 18.8481C76.4048 18.5277 75.944 18.6543 75.5344 18.8715C75.5381 18.6952 75.5491 18.3398 75.5564 18.1635C70.0015 15.7539 64.0004 14.2173 57.9299 14.082C50.8719 13.8468 43.8908 15.2928 37.1181 17.1703ZM45.2877 13.3857C38.4785 14.4023 31.8009 16.6912 25.968 20.3701C35.7723 16.4327 46.1618 13.5503 56.7743 13.3239C58.1968 13.2211 59.5938 13.7294 61.0163 13.5089C58.259 13.0182 55.4577 12.9977 52.6748 12.7775C50.2173 13.0332 47.7306 12.9538 45.2877 13.3857ZM80.3909 10.941C79.6339 13.4855 78.1565 15.7393 76.6535 17.8962C78.1528 18.6012 79.6449 19.3359 81.0528 20.2231C81.839 20.7844 82.4534 21.5572 83.2762 22.0834C84.9401 23.2233 86.4285 24.5987 88.001 25.8621C88.8714 23.5879 90.2939 21.5484 91.8664 19.7089C88.0559 16.7647 84.2234 13.8585 80.3909 10.941ZM79.9813 9.66547C81.6306 11.2581 83.5505 12.5424 85.3753 13.9233C84.6293 13.0507 83.6566 12.4159 82.8191 11.6402C81.9122 10.9289 81.104 10.033 79.9813 9.66547ZM83.4189 2.28426C82.7131 2.41957 81.9926 2.4225 81.2795 2.4576C79.6046 3.48923 78.3284 5.04929 77.3154 6.71247C77.9846 7.65268 78.7562 8.64883 79.9484 8.92237C81.7878 9.69509 83.1336 11.276 84.6768 12.4952C87.4708 14.7962 90.2427 17.1231 93.0586 19.3977C93.9289 20.0556 94.6786 20.9519 95.8159 21.1607C96.4047 20.7493 96.913 20.2381 97.3592 19.6709C97.308 19.5886 97.2092 19.4211 97.158 19.3389C98.0394 18.372 98.4709 17.1114 99.0414 15.9565C98.1125 14.5139 96.4157 13.7854 95.2345 12.5629C95.3588 12.4981 95.6038 12.372 95.7245 12.3073C92.5832 9.55686 89.3395 6.91543 86.0153 4.39104C85.1961 3.6271 84.4062 2.82805 83.4189 2.28426ZM81.5794 1.61138C81.6416 2.01694 81.8427 2.07874 82.1828 1.80264C82.106 1.39709 81.9049 1.33236 81.5794 1.61138ZM78.727 3.78581C79.2682 2.36654 80.6469 0.918024 82.2998 1.19705C84.0149 1.50277 85.3241 2.76332 86.7796 3.62125C86.7028 3.7273 86.5382 3.93575 86.4541 4.04143C90.4256 6.93591 94.1666 10.1358 97.8346 13.4003C98.822 14.4374 100.201 15.2928 100.504 16.8002C100.614 18.5511 100.581 20.3112 100.555 22.0684C100.449 22.007 100.234 21.8834 100.124 21.8216C99.0633 23.6906 97.5018 25.7828 95.1869 25.9737C94.6859 25.7385 94.1813 25.533 93.6876 25.3037C92.9818 24.2754 91.8445 23.6789 91.0217 22.7621C90.2866 24.0315 89.4309 25.2331 88.4289 26.3057C90.5389 28.5065 92.8904 30.4637 94.9017 32.7672C97.2056 34.9475 98.7159 37.7626 100.522 40.3364C101.737 42.279 103.199 44.0625 104.3 46.0782C106.428 49.8452 108.666 53.5592 110.455 57.5113C110.963 58.778 111.958 59.7709 112.47 61.0344C112.638 61.9691 112.715 62.9239 112.92 63.8583C113.011 70.0495 112.455 76.2905 110.711 82.2586C108.272 90.8386 103.814 98.8488 97.7724 105.416C96.1889 107.367 94.2142 108.927 92.4003 110.649C88.0083 114.675 83.3713 118.518 78.1199 121.383C77.1874 121.874 76.3024 122.503 75.2529 122.699C75.7356 122.015 76.5365 121.707 77.2276 121.284C80.4896 119.444 83.6236 117.361 86.5236 114.983C81.5319 118.154 76.094 120.637 70.3745 122.147C65.6607 123.443 60.775 123.948 55.9002 124.063C52.843 124.098 49.8224 123.443 46.7725 123.452C45.3865 123.114 44.1139 122.459 42.8449 121.824C42.1391 121.474 41.437 121.122 40.7312 120.781C37.6008 119.171 34.5802 117.358 31.6144 115.459C30.0748 114.484 28.6596 113.329 27.0944 112.392C26.5568 112.077 26.0375 111.71 25.7523 111.143C26.1911 111.225 26.6336 111.319 27.0724 111.422C22.4464 108.211 18.4786 104.206 14.434 100.318C13.2491 98.5932 11.7571 97.1121 10.5686 95.3871C4.57849 87.2595 1.02722 77.3514 0.536456 67.2669C0.313382 65.1719 0.248654 63.0384 0.55145 60.9492C1.33587 47.8942 7.2883 35.2148 16.8732 26.3057C18.2775 25.0539 19.4587 23.5319 21.1555 22.6415C25.9644 19.0686 31.3511 16.2535 37.0852 14.4875C48.3815 10.9143 60.87 11.4139 71.8702 15.8099C73.194 16.3036 74.4483 16.9644 75.7758 17.461C76.946 15.028 78.2772 12.6773 79.7436 10.406C79.4364 10.1094 79.1146 9.82418 78.8842 9.4658C78.2552 8.51097 77.2642 7.84686 76.7266 6.82401C77.0996 5.65488 77.948 4.71139 78.727 3.78581Z" fill="white"/>
<path fill-rule="evenodd" clip-rule="evenodd" d="M72.7588 101.537C70.689 102.721 68.418 103.465 66.2641 104.455C68.6265 103.929 70.8572 102.909 73.0038 101.805C74.8067 100.759 76.6681 99.6891 78.1089 98.1612C76.3463 99.3186 74.6239 100.55 72.7588 101.537ZM25.0684 94.9669C29.6213 99.2247 35.1909 102.483 41.2066 104.152C40.2265 103.579 39.1367 103.244 38.1201 102.748C33.4685 100.7 29.1386 97.9966 25.0684 94.9669ZM47.6648 25.662C43.942 25.9794 40.2046 26.4585 36.6098 27.522C34.3352 28.1802 32.3092 29.4232 30.2832 30.6044C27.2772 32.717 24.3187 34.9854 21.9856 37.8536C14.4815 46.3809 10.6929 58.1636 12.1155 69.453C12.8066 76.0348 15.2166 82.4114 18.9394 87.8767C20.0182 89.5074 21.576 90.727 22.9108 92.1375C27.9976 96.8593 34.1267 100.329 40.5008 103.006C45.7485 105.084 51.4497 106.497 57.1217 105.698C67.4891 104.667 77.3739 99.4598 84.0844 91.4909C87.489 86.7511 89.9282 81.2858 91.0436 75.5502C91.5592 72.8997 91.647 70.1964 91.7896 67.5108C91.9066 67.596 92.1443 67.7693 92.2614 67.8575C92.6563 72.7852 91.519 77.6892 89.9502 82.335C92.5137 77.2749 93.7936 71.5598 93.8741 65.8944C94.3495 53.8089 88.9482 41.6557 79.718 33.8543C73.3293 29.9491 66.2897 26.9079 58.8551 25.7531C56.4854 25.6123 54.1193 25.2243 51.7423 25.4711C50.3892 25.6269 49.0252 25.6532 47.6648 25.662ZM40.9031 25.6064C42.6803 25.6152 44.4101 25.0334 46.1947 25.0334C48.824 24.675 51.4826 24.7602 54.1303 24.7335C61.3235 24.5104 68.2059 27.1636 74.6312 30.1253C73.7425 29.3822 72.6784 28.9061 71.669 28.3652C67.6683 26.2881 63.3166 24.9039 58.8587 24.2369C55.8381 23.7023 52.7589 23.9136 49.709 23.899C46.7322 24.193 43.7518 24.675 40.9031 25.6064ZM48.0195 23.4232C57.3521 22.3536 67.032 24.4545 74.9969 29.4733C77.3446 30.8688 79.356 32.732 81.6087 34.2628C82.4388 34.8446 82.8264 35.8291 83.5286 36.5371C89.3797 42.8369 93.1683 50.9971 94.269 59.5211C94.4921 62.2129 94.9456 64.9308 94.4994 67.6282C94.0752 74.5658 91.8189 81.371 88.0961 87.239C87.0283 88.9786 85.7264 90.5536 84.5562 92.2227C81.466 96.5331 77.5641 100.397 72.7698 102.769C66.3482 106.004 58.9867 107.241 51.8483 106.644C48.9484 106.359 46.0228 106.121 43.185 105.404C32.5762 102.906 23.0461 96.0983 17.3815 86.772C14.0866 81.3593 11.9838 75.1973 11.3804 68.8858C10.1517 56.6975 14.6424 44.0653 23.346 35.4265C25.0209 33.6547 26.9847 32.2029 28.8534 30.6516C34.5765 26.8169 41.159 24.2311 48.0195 23.4232Z" fill="white"/>
<path fill-rule="evenodd" clip-rule="evenodd" d="M59.1806 62.5686C59.5645 62.4892 59.6267 62.2745 59.3707 61.9249C58.9721 62.0043 58.91 62.2186 59.1806 62.5686ZM51.7131 57.7289C51.7935 57.8376 51.9581 58.0522 52.0422 58.1608C51.5339 58.4987 51.0402 58.8542 50.5684 59.2305C50.5575 59.8416 50.5684 60.4556 50.605 61.0699C51.106 61.7662 51.6436 62.7094 52.631 62.6977C53.6586 62.8534 54.5289 62.204 55.1981 61.4989C55.359 61.5252 55.6882 61.5753 55.8527 61.6017C56.3537 60.4029 56.3245 58.9306 55.2969 58.0138C54.3863 56.9562 52.8577 57.3969 51.7131 57.7289ZM47.0907 58.2402C46.8822 59.6595 46.6116 61.0699 46.3154 62.4775C45.6169 65.8946 44.2748 69.1533 43.8396 72.6296C45.8436 71.3807 47.9391 70.2906 50.0199 69.1741C52.7919 67.7432 55.509 66.1974 58.3395 64.8779C57.14 64.7163 56.4781 63.6262 55.6406 62.8918C54.9166 63.3091 54.1413 63.7644 53.2782 63.6792C51.6399 63.5998 50.2832 62.2804 49.859 60.7496C49.5408 59.9268 50.0418 59.1215 50.3088 58.3634C49.4275 57.779 48.6156 57.1029 47.9318 56.3009C47.2735 56.7269 47.204 57.5381 47.0907 58.2402ZM48.4401 56.1864C49.1642 56.7741 49.8882 57.3676 50.5757 58.0021C51.4059 57.3117 52.3969 56.6827 53.5269 56.762C55.2932 56.5799 56.7926 58.3342 56.7889 60.0178C56.8621 60.8641 56.3574 61.5929 56.1087 62.3685C56.6938 63.203 57.4984 63.8437 58.2224 64.5517C59.1477 59.4272 60.2777 54.3411 61.521 49.2869C57.3265 51.8961 52.7187 53.7385 48.4401 56.1864ZM62.1208 48.8608C61.6015 51.285 61.0237 53.7004 60.4824 56.1217C60.1131 58.0639 59.4439 59.9681 59.3963 61.9542C59.9376 60.679 60.2082 59.3128 60.5958 57.9846C61.4918 54.7584 62.3 51.5026 62.8375 48.1967C62.5962 48.4172 62.3548 48.6374 62.1208 48.8608ZM63.2727 46.3573C63.43 46.6805 63.5982 47.0272 63.5287 47.4035C62.9289 51.3878 61.905 55.293 60.8372 59.1716C60.2082 61.2521 59.773 63.406 58.9173 65.4038C56.9023 66.0328 55.1433 67.2199 53.366 68.3217C50.9341 69.8499 48.5498 71.4542 46.0228 72.8176C45.0428 73.3376 44.0334 73.8726 42.9071 73.9399C43.1082 73.2524 43.4191 72.5385 43.0826 71.8448C44.721 66.1473 45.6425 60.2618 47.2113 54.5496C47.7672 54.8933 47.6026 55.4605 47.4637 55.9864C47.8184 55.8043 48.1804 55.628 48.5498 55.4576C48.3706 55.3958 48.0159 55.2755 47.8367 55.2137C49.5006 53.9147 51.5229 53.198 53.3587 52.1784C56.3647 50.6385 59.3268 49.0166 62.2561 47.3359C62.6949 47.1271 63.0131 46.7716 63.2727 46.3573Z" fill="white"/>
<path fill-rule="evenodd" clip-rule="evenodd" d="M18.3762 60.0296C18.7273 59.8299 19.0637 59.5626 19.4733 59.4628C20.607 59.6683 21.7333 60.015 22.7573 60.5646C23.1522 60.7438 23.24 61.202 23.4375 61.552C21.6602 61.4576 19.9816 60.738 18.3762 60.0296Z" fill="white"/>
<path fill-rule="evenodd" clip-rule="evenodd" d="M82.6253 61.1727C84.3405 61.2579 86.0117 61.7428 87.6683 62.1659C87.7122 62.6771 87.1746 62.8797 86.7687 62.9503C85.3571 62.7448 83.9711 62.4069 82.6107 61.9896C82.6107 61.7837 82.6217 61.3753 82.6253 61.1727Z" fill="white"/>
<path fill-rule="evenodd" clip-rule="evenodd" d="M19.2722 74.9388C20.4534 73.8695 21.8028 72.7322 23.4558 72.594C22.9548 73.9489 21.4152 74.3131 20.3108 75.0332C20.0548 75.0094 19.5319 74.9626 19.2722 74.9388Z" fill="white"/>
<path fill-rule="evenodd" clip-rule="evenodd" d="M76.3536 82.7198C77.4873 80.4133 78.9903 78.2887 80.87 76.5286C81.8464 76.1907 82.8045 76.79 83.6858 77.1429C84.7902 77.7365 85.9788 78.2122 86.9369 79.0467C86.5127 79.0588 86.125 79.0764 85.7191 79.0764C85.3351 79.0734 84.9219 79.1733 84.611 78.903C83.6383 78.277 82.6729 77.6187 81.5867 77.2102C80.9943 77.9566 80.3397 78.6533 79.6632 79.3203C80.5006 79.9902 81.6014 80.5103 81.9305 81.6209C80.8224 81.4271 80.0545 80.5662 79.2061 79.9167C78.588 80.6306 77.9883 81.3623 77.5202 82.1793C78.5295 83.6541 80.4311 83.9511 81.7221 85.0646C82.0036 85.8403 81.2576 85.479 80.8298 85.3967C81.1735 85.7434 81.5758 86.108 81.2942 86.6455C80.1569 85.9405 79.1841 85.0149 78.0176 84.3596C77.3081 83.9891 76.7449 83.4135 76.3536 82.7198Z" fill="white"/>
<path fill-rule="evenodd" clip-rule="evenodd" d="M27.8038 91.4558C28.5352 92.2047 29.5079 92.8542 30.6087 92.6161C29.603 92.4077 28.6851 91.9641 27.8038 91.4558ZM29.7164 86.6191C29.1971 84.324 32.2689 82.9724 33.9036 84.3624C35.2201 85.1735 35.5639 86.7365 35.6736 88.1704C35.531 88.2706 35.2384 88.4644 35.0958 88.5613C34.8069 87.2565 34.6533 85.6054 33.238 85.0177C32.3713 84.4769 31.3218 84.6915 30.5977 85.3556C30.5977 85.7846 30.605 86.2135 30.6197 86.6484C31.49 87.571 32.737 88.3291 32.9491 89.6866C33.1393 91.6171 31.2816 93.7564 29.252 93.1512C27.1602 92.5163 26.1179 89.8306 27.1711 87.9415C27.2772 87.9532 27.4966 87.9766 27.6063 87.9883C27.7343 88.7551 27.4893 89.6193 27.9355 90.3068C28.345 90.9884 29.0801 91.3644 29.72 91.8025C30.499 91.7524 31.8777 92.0051 31.9106 90.8502C31.8594 89.1782 30.5063 87.9853 29.7164 86.6191Z" fill="white"/>
<path fill-rule="evenodd" clip-rule="evenodd" d="M62.3585 91.8201C62.4829 91.6965 62.7388 91.4468 62.8668 91.3235C64.1907 92.399 65.2292 93.7565 66.1837 95.1611C66.1837 95.5224 66.1874 95.8867 66.191 96.2542C64.4686 95.258 63.3678 93.4716 62.3585 91.8201Z" fill="white"/>
<path fill-rule="evenodd" clip-rule="evenodd" d="M47.7818 97.1092C48.0268 95.502 48.1438 93.683 49.336 92.4517C49.8187 94.4587 48.6156 96.2689 48.4437 98.2257C48.1694 97.8819 47.6172 97.6234 47.7818 97.1092Z" fill="white"/>
</g>
<defs>
<clipPath id="clip0_1_443">
<rect width="113" height="123.239" fill="white" transform="translate(0 0.834961)"/>
</clipPath>
</defs>
</svg>
