<svg width="178" height="224" viewBox="0 0 178 224" fill="none" xmlns="http://www.w3.org/2000/svg">
<g opacity="0.6" clip-path="url(#clip0_99_796)">
<path fill-rule="evenodd" clip-rule="evenodd" d="M107.231 158.383C107.426 159.872 108.907 160.371 109.117 161.174C109.621 163.104 110.036 165.053 110.681 166.963C111.823 170.347 112.823 173.78 113.86 177.128C115.826 176.721 117.495 176.457 119.111 176.007C119.918 175.782 121.041 175.412 120.72 174.243C120.015 171.664 120.478 168.951 119.617 166.525C119.924 166.15 120.141 167.538 120.34 166.416C120.465 165.708 119.699 165.392 119.466 164.804C118.491 162.329 119.247 159.58 118.21 157.121C118.133 156.941 118.181 156.522 118.19 156.521C120.046 156.415 118.053 155.18 118.886 154.814C114.814 155.653 111.157 157.313 107.231 158.383ZM105.442 158.762C102.3 159.226 99.0964 159.371 96.164 160.865C95.6022 161.151 94.7285 160.819 93.819 160.76C94.3769 163.212 96.3501 164.776 97.0254 167.105C97.5948 169.059 99.6133 170.551 100.46 172.479C101.497 174.842 103.296 176.614 104.561 178.774C104.833 179.241 105.244 179.471 105.939 179.465C108.31 179.446 110.421 178.49 112.705 177.904C112.318 177.487 111.663 177.774 111.476 177.18C110.674 174.647 109.632 172.163 109.109 169.575C108.618 167.15 106.291 165.178 107.344 162.399C105.414 161.852 106.355 159.769 105.379 158.722C105.883 158.501 106.051 159.802 106.69 159.008C106.888 158.762 106.946 158.324 106.74 158.317C106.298 158.302 105.471 157.527 105.442 158.762ZM106.698 191.931C107.375 193.118 109.093 193.086 109.588 194.6C110.287 196.745 111.784 198.506 112.839 200.421C113.535 201.688 114.668 202.865 114.742 204.926C117.29 199.876 123.808 197.922 130.194 200.204C128.433 200.041 128.211 201.221 127.361 201.883C126.842 202.053 126.898 201.128 126.397 201.162C124.022 203.278 121.172 204.011 118.073 204.011C117.448 204.01 116.902 203.412 116.519 204.755C116.185 205.934 114.264 204.51 113.237 205.375C112.859 204.858 112.426 204.514 112.391 203.655C112.357 202.813 112.205 201.305 110.425 201.586C109.766 201.689 108.557 199.238 108.754 198.211C108.924 197.319 106.733 197.898 107.826 196.584C105.401 196.415 107.159 194.095 106.252 193.399C104.673 192.923 103.403 193.983 101.778 193.484C101.055 193.262 100.575 192.757 100.502 192.536C99.9095 190.729 98.3691 189.178 98.8734 187.059C99.1642 185.836 97.3392 186.217 97.6585 184.745C98.4706 183.845 99.4702 182.5 101.171 182.025C102.37 181.691 102.84 180.573 101.989 180.042C99.5028 178.488 99.5376 175.664 98.2537 173.534C96.9275 171.341 95.6388 169.11 94.344 166.902C93.5231 165.506 92.9184 164.154 92.6252 162.635C92.2776 160.842 91.4496 160.42 89.9997 161.431C87.6833 163.048 87.8383 160.771 87.3353 159.854C98.9757 157.456 110.305 153.549 122.089 151.537C122.638 151.344 122.303 152.296 123.153 152.254C122.619 150.605 124.777 151.262 124.794 150.463C124.813 149.467 124.188 148.457 123.823 147.459C123.424 146.365 123.426 146.347 124.895 146.045C123.361 145.166 123.205 144.308 124.018 142.771C124.57 141.73 124.249 140.157 124.551 138.776C125.342 135.179 126.192 131.636 127.485 128.17C128.469 125.533 129.557 122.93 130.419 120.237C130.781 119.112 131.848 118.109 132.223 116.868C133.378 113.056 134.729 109.298 135.948 105.517C137.428 100.923 137.949 96.1334 139.535 91.6059C140.172 89.7812 139.349 87.9016 139.802 86.0959C140.53 83.1911 139.909 80.134 140.831 77.2692C141.057 76.5686 140.839 75.9917 140.613 75.4487C139.824 73.544 139.983 71.4458 139.695 69.4968C139.359 67.2321 138.713 65.1192 138.276 62.942C137.619 59.673 136.403 56.7788 134.729 54.051C132.514 50.4457 130.871 46.5641 127.384 43.6225C125.624 42.1353 123.974 39.7365 122.639 37.48C121.718 35.921 120.051 35.1979 118.659 34.1743C116.358 32.4816 114.241 30.3975 111.901 28.9637C108.481 26.8655 105.113 24.4224 100.951 23.5587C98.0171 22.9506 95.1247 21.9532 92.3877 20.6247C91.7287 20.3058 91.0748 19.5054 90.3716 20.8538C90.1061 21.3611 88.81 20.9126 88.1575 20.5217C86.6403 19.6132 85.0265 19.9432 83.4718 19.7257C80.3436 19.2924 77.324 20.2945 74.125 19.5517C71.6156 18.9699 68.4763 18.6821 65.88 20.4071C64.9638 21.0171 63.9781 20.5011 63.0278 20.5313C61.167 20.5895 59.2396 21.2833 57.8659 22.316C56.0673 23.6657 54.083 24.4472 52.1178 25.3114C49.6088 26.418 49.5599 26.3101 50.5358 28.7916C49.2933 29.4946 48.7202 30.5347 48.5722 31.9964C48.4712 33.0073 47.2083 33.533 47.2802 34.8922C47.3372 35.9407 46.3759 37.0274 47.3868 38.1099C47.4791 38.2094 47.4315 38.5426 47.3355 38.6991C46.3715 40.2702 46.2488 42.0293 46.6124 43.7149C46.9519 45.2927 45.478 45.973 45.2822 47.1963C43.5998 44.8769 43.5114 42.5213 45.2088 39.6797C44.8409 38.3506 44.2186 36.5302 45.625 34.8342C45.7719 35.2354 45.9184 35.635 46.0773 36.0733C46.9782 35.3303 46.0002 34.8492 46.0102 34.2696C47.1187 33.9955 46.4993 33.3017 46.3296 32.7854C46.0026 31.7916 45.9687 31.8027 46.5752 30.5441C45.4945 31.3048 43.1109 29.3341 43.766 32.3715C43.1377 32.6264 41.9074 31.5778 42.302 33.4149C42.479 34.2335 40.877 34.1257 40.1354 34.7565C38.2085 36.4017 36.8412 38.5548 34.8867 40.2146C33.8765 41.072 31.9021 42.1269 31.8211 44.2756C31.801 44.8053 31.2922 46.1953 29.8407 46.2644C29.0893 46.3016 29.0309 47.5769 28.7461 48.283C27.984 50.1734 27.0376 51.8664 25.8231 53.5502C24.5024 55.3792 24.0515 57.821 23.1133 59.9479C22.1946 62.0308 22.0902 64.3249 21.4645 66.4821C20.9112 68.3963 20.6791 70.6162 20.3935 72.7049C20.0214 75.4277 19.4403 78.2798 19.8424 80.8431C20.1998 83.1283 20.7764 85.4942 21.0078 87.807C21.3793 91.5095 22.6154 94.9979 23.3279 98.6035C23.9157 101.575 24.5398 104.679 26.2569 107.49C27.2013 109.036 27.7595 111.116 28.5415 112.884C29.3785 114.776 31.3631 116.151 32.2583 118.03C33.6946 121.036 36.9908 122.691 37.7806 126.079C37.7965 126.143 37.8244 126.232 37.8747 126.255C40.3188 127.458 41.5844 130.085 43.9477 131.34C45.4796 132.155 46.8247 133.058 48.029 134.358C49.0055 135.411 50.4268 136.137 51.769 136.747C53.714 137.631 55.6159 138.39 57.2744 139.923C58.8543 141.38 61.1438 142.014 63.0059 143.141C65.8727 144.879 68.9422 146.227 71.7571 148.16C74.3312 149.927 76.5227 152.647 79.9348 153.295C81.9979 153.686 82.5987 155.902 83.9278 157.228C83.4742 157.55 83.3277 158.042 83.153 158.829C81.7316 157.231 80.3091 155.923 78.4207 155.124C77.5926 154.772 77.0655 153.902 75.8922 154.062C75.37 154.133 74.4891 153.724 74.328 152.969C74.2349 152.527 73.9832 152.404 73.7046 152.261C68.7379 149.69 64.5258 145.932 59.2454 143.75C54.5481 141.808 50.403 138.629 46.0586 135.915C44.1698 134.736 42.6975 132.939 40.4944 132.236C38.9662 131.75 38.2435 130.275 37.2456 129.201C35.0897 126.874 33.3674 124.198 31.6794 121.506C30.6197 119.816 29.662 118.1 28.0769 116.7C26.7643 115.544 25.8287 113.767 25.1911 112.09C24.4014 110.018 23.1163 108.019 22.8254 105.912C22.4103 102.897 20.2297 100.461 20.4104 97.3543C20.4346 96.9361 20.0323 96.9954 19.9261 96.7748C18.5047 93.8103 17.8919 90.7157 18.3821 87.4294C18.441 87.0351 18.4292 86.4403 18.1924 86.2308C17.2529 85.3962 17.196 84.3547 17.1899 83.229C17.1711 80.0558 16.6904 76.9232 17.3465 73.6969C17.7773 71.586 17.6489 69.3664 18.3522 67.223C19.2588 64.461 20.3136 61.7392 20.7797 58.8271C21.2372 55.9667 23.0581 53.6013 24.0247 50.8914C24.8469 48.5852 26.417 46.4855 28.1419 44.6618C29.1671 43.5769 29.3745 42.0689 30.4888 41.0265C32.6252 39.023 33.8689 36.137 36.3784 34.5448C37.4004 33.897 37.9238 32.1688 39.6253 32.71C39.4149 31.7247 40.4539 30.7926 40.7145 30.6719C43.7667 29.237 45.1759 25.7743 48.524 24.5978C49.4643 24.2678 51.2093 23.916 51.6263 22.3577C54.0472 22.9761 54.7243 20.0185 56.7966 19.853C58.7884 19.6956 60.572 18.7018 62.5782 18.3399C65.2506 17.8551 68.0708 17.9859 70.6574 16.9636C71.3683 16.6825 72.0926 16.5719 72.8406 17.1319C73.7703 17.8285 74.6247 16.903 75.5244 16.7847C78.5978 16.3765 81.6113 17.0136 84.6455 17.149C86.7055 17.2402 88.6649 17.7214 90.6618 17.9671C95.0821 18.5069 99.3401 19.7702 103.171 22.1776C103.354 22.2928 103.304 22.8203 103.682 22.5845C105.407 21.5118 106.628 22.8145 107.838 23.5752C111.194 25.6872 114.651 27.7171 117.697 30.2308C120.75 32.7513 123.698 35.4573 126.303 38.4929C127.839 40.2844 129.892 41.593 131.128 43.6831C133.857 48.3009 138.03 52.0763 139.506 57.3826C139.927 58.8961 139.918 61.0213 140.612 62.057C141.964 64.0765 141.352 66.2426 142.114 68.2323C143.624 72.1905 144.63 76.282 142.965 80.5113C142.899 80.6807 143.002 80.9286 143.059 81.1293C143.782 83.7277 142.581 86.2766 142.863 88.864C143.002 90.1398 141.803 91.2303 141.877 92.2281C142.067 94.7369 140.463 96.7192 140.398 99.1153C140.268 103.845 137.815 107.958 136.48 112.361C135.789 114.636 134.268 116.84 134.023 119.175C133.85 120.821 132.121 121.735 132.63 123.491C132.876 124.337 131.73 124.332 131.36 124.933C129.527 127.916 129.079 131.305 128.37 134.614C128.203 135.397 128.521 136.275 127.469 136.689C127.273 136.765 127.224 137.285 127.162 137.612C126.344 141.989 124.824 146.288 125.504 150.834C125.612 151.556 125.31 152.032 124.924 152.117C123.109 152.522 122.211 154.72 120.055 154.284C120.182 154.914 121.062 155.019 120.738 155.318C119.444 156.506 120.512 157.527 120.831 158.592C121.831 161.934 122.296 165.37 122.795 168.812C123.009 170.279 123.204 171.755 123.033 173.177C122.903 174.254 123.316 174.824 124.08 174.878C124.503 174.908 125.594 174.806 125.6 173.744C125.601 173.634 125.899 173.526 126.246 173.292C126.425 173.98 126.203 174.961 127.362 174.789C129.233 174.512 131.478 176.077 131.152 177.77C130.971 178.708 131.422 179.197 131.488 179.868C131.296 180.804 129.997 180.275 129.94 181.272C128.485 179.86 128.541 177.96 127.826 176.308C125.517 176.084 123.197 176.494 121.158 177.41C118.123 178.775 114.844 179.182 111.771 180.33C110.533 180.793 109.271 181.039 108.293 182.065C107.768 182.615 106.906 182.492 106.131 182.564C104.709 182.696 103.208 182.666 102.151 184.176C101.631 184.917 100.324 184.82 99.1387 183.998C99.5116 185.185 99.7191 185.955 100.722 186.281C101.909 186.668 101.952 188.208 102.161 188.887C102.935 191.428 104.874 191.529 106.776 191.979L106.698 191.931Z" fill="#EAAE33"/>
<path fill-rule="evenodd" clip-rule="evenodd" d="M112.856 109.129C112.808 108.39 113.268 107.766 112.235 107.541C112.249 108.096 112.318 108.549 112.856 109.129ZM109.739 65.5162C108.466 65.1459 107.094 62.2207 108.039 61.3866C108.802 60.7146 108.137 60.57 108.017 60.4077C106.961 58.9909 106.689 57.3946 106.86 55.7015C106.922 55.0952 106.333 54.8752 106.118 54.6632C104.69 53.259 105.001 51.7878 105.63 50.1658C105.302 49.9374 104.477 50.2236 104.563 49.4101C104.655 48.5336 104.104 48.2345 103.459 47.8714C102.545 47.355 101.825 46.5306 102.639 45.5246C103.463 44.5056 102.129 44.646 101.97 44.1093C101.048 41.0114 99.6774 37.9804 97.3932 35.6922C95.9128 34.2126 94.1815 32.9531 92.9445 31.2256C91.8202 29.6589 90.8093 28.0119 89.8675 26.3284C92.2761 27.6396 93.1654 28.875 93.4087 31.0456C93.8629 31.06 94.3187 30.4513 94.8093 31.0027C96.4033 32.7942 98.1225 34.4968 99.2017 36.6685C99.5691 37.4121 99.9742 38.0749 100.568 38.6351C100.812 38.867 101.212 39.0563 101.283 39.3325C102.088 42.4623 105.118 44.6286 105.091 48.1134C107.267 49.2563 106.238 52.0676 107.998 53.5709C108.94 54.3767 109.012 56.1174 109.14 57.3136C109.365 59.4574 109.694 61.6503 110.533 63.4835C111.763 66.1609 110.901 68.9404 111.678 71.5433C112.383 73.9022 112.295 76.3201 112.383 78.7181C112.422 79.7785 113.99 80.0783 113.5 81.3244C113.286 81.121 113.105 80.949 112.907 80.7588C112.859 80.8669 112.752 81.0018 112.78 81.0538C113.465 82.1889 113.271 83.4344 113.423 84.661C113.806 87.7308 114.615 90.747 114.568 93.8837C114.557 94.6025 114.853 95.2459 114.173 95.9391C113.95 96.1655 113.718 97.1983 114.226 98C114.724 98.7833 115.07 99.7701 113.73 100.579C112.806 101.137 114.568 101.487 114.313 101.905C112.899 104.207 114.415 106.741 113.643 109.174C113.344 110.114 113.369 111.752 113.873 113.021C111.225 111.946 110.693 106.053 113.019 103.625C112.618 102.926 112.415 103.847 111.916 103.592C113.041 102.455 111.493 100.862 112.62 99.5605C112.84 99.3087 112.847 98.7069 112.721 98.3476C111.466 94.7905 112.45 91.2173 112.525 87.6475C112.543 86.7878 112.18 85.8039 111.689 85.0854C111.271 84.4702 110.953 83.8873 111.546 83.5048C112.818 82.6846 111.466 83.1362 111.348 82.9681C110.704 82.0506 111.285 81.2651 111.788 80.45C109.866 79.5223 110.311 78.5279 111.601 77.3617C109.687 76.6854 111.525 75.6166 111.448 74.6686C110.653 74.3854 108.824 74.7074 110.479 73.0313C110.571 72.9375 110.665 72.6777 110.655 72.6718C108.809 71.6 110.485 69.5066 109.32 68.1182C108.856 67.5666 107.829 66.0858 109.739 65.5162Z" fill="#EAAE33"/>
<path fill-rule="evenodd" clip-rule="evenodd" d="M89.726 143.691C87.5475 141.474 85.3038 139.628 84.1488 136.596C83.193 136.856 82.3786 136.003 81.605 135.241C79.8389 133.502 78.5119 131.395 76.9479 129.495C76.2815 128.687 75.5638 127.359 73.9141 127.725C73.6308 127.789 72.6597 126.935 72.4345 126.113C71.9233 124.256 70.8399 122.985 69.1623 121.884C68.0102 121.127 67.6877 119.187 65.8087 119.076C66.0949 119.029 66.3827 118.982 66.8022 118.914C66.3871 118.177 65.5221 117.774 65.0984 117.582C63.51 116.857 62.6729 115.799 62.1475 114.184C61.9824 113.672 61.6676 112.691 60.6698 112.676C60.5253 112.675 60.266 112.415 60.2576 112.263C60.073 109.434 56.8547 108.858 56.0098 106.348C55.1142 103.684 53.5037 101.256 52.1529 98.7538C50.8178 96.2775 49.174 93.9387 48.1123 91.3558C46.8805 88.3517 46.0881 85.1603 45.2199 82.0195C45.0272 81.3231 45.4051 80.5265 45.9231 79.8691C47.161 80.9843 47.6879 82.5723 47.9365 83.9921C48.4072 86.6966 50.3982 88.8646 50.3497 91.722C50.332 92.7417 51.7393 92.9028 52.1435 93.8315C53.0627 95.9522 53.7536 98.299 55.1704 100.041C56.7214 101.951 57.2691 104.443 59.1593 106.102C59.8449 106.704 60.3559 107.515 60.2373 108.622C60.1882 109.091 60.3604 110.059 61.3065 109.719C61.8625 109.52 62.0122 110.009 62.0368 110.13C62.4199 112.131 64.3746 113.056 65.1568 114.909C65.9364 116.751 67.808 118.137 69.2257 119.703C70.1326 120.701 71.0928 121.599 72.3383 122.247C73.8965 123.055 73.5615 125.271 75.0574 126.295C75.648 126.697 76.3438 127.112 76.7855 127.575C78.0529 128.9 79.7967 129.544 80.7298 131.516C81.697 133.562 83.8757 135.113 85.7242 136.639C87.553 138.151 88.7397 140.164 90.3134 141.862C90.712 142.289 90.3829 142.911 89.726 143.691Z" fill="#EAAE33"/>
<path fill-rule="evenodd" clip-rule="evenodd" d="M38.4525 86.538C37.8834 85.3221 37.3429 84.204 36.3414 83.1366C35.4344 82.1699 35.5905 80.1413 35.4326 78.5647C35.3759 78.0051 36.1514 78.6139 36.5369 78.1019C36.2525 77.0647 36.2172 75.6849 35.5269 74.8417C35.0211 74.2223 34.669 73.9003 34.4557 72.9878C33.9016 70.6334 35.168 68.369 34.4754 66.093C33.6136 63.2706 34.3572 60.3633 33.9851 57.5052C34.2286 56.5713 35.1983 58.0555 35.0636 57.359C34.7354 55.6549 37.0621 54.076 34.92 52.2677C36.9829 53.0881 36.7435 53.9276 36.3931 55.517C35.9742 57.4083 35.1367 59.5305 36.1006 61.5386C36.8988 63.2053 36.3052 64.9405 36.4958 66.6365C36.6326 67.8408 36.1462 69.1139 36.8997 70.2775C37.0088 70.4445 37.1048 70.7242 37.0405 70.8808C36.163 72.9278 37.6714 74.7022 37.6754 76.5708C37.6833 78.7742 38.279 80.9273 38.073 83.1525C38.036 83.5373 37.8422 84.5173 38.6698 84.9957C39.8085 85.6526 38.2294 85.9361 38.3651 86.4951L38.4525 86.538Z" fill="#EAAE33"/>
<path fill-rule="evenodd" clip-rule="evenodd" d="M85.7106 27.1147C86.2223 26.9409 86.3983 25.7547 87.145 26.5472C89.0661 28.5884 91.5897 30.4732 91.9834 33.3008C92.3433 35.8774 93.2707 38.2139 94.2837 40.4074C95.5766 43.2047 96.3582 46.1194 97.3612 48.9822C97.8258 50.3112 98.1967 51.6764 97.7925 53.3843C96.3226 51.6028 95.0356 49.9752 95.0732 47.5464C95.0793 46.9978 94.0741 46.6032 93.9596 45.6532C93.6417 43.0247 92.5297 40.5471 91.5793 38.1394C90.7061 35.9235 89.6532 33.6741 88.6311 31.4797C87.8658 29.8304 86.6086 28.6642 85.7106 27.1147Z" fill="#EAAE33"/>
<path fill-rule="evenodd" clip-rule="evenodd" d="M131.245 183.708C129.659 183.743 129.342 185.737 127.624 184.769C130.351 186.577 129.058 189.459 129.432 191.62C129.768 193.565 130.924 196.125 129.546 198.668C128.233 196.926 127.351 195.668 127.476 193.5C127.576 191.774 127.838 189.925 127.543 188.144C127.373 187.126 127.358 186.001 126.119 185.549C125.361 185.272 125.315 184.495 124.989 183.909C126.888 183.156 128.77 182.497 131.245 183.708Z" fill="#EAAE33"/>
<path fill-rule="evenodd" clip-rule="evenodd" d="M102.524 75.7261C102.458 75.3465 102.36 74.8529 102.371 74.8498C103.967 74.4968 102.935 73.7683 102.522 73.3205C102.306 73.0859 101.889 73.211 101.768 72.6092C101.264 70.0931 100.222 67.5452 100.166 65.1317C100.134 63.765 98.8313 62.3879 99.868 61.0114C101.619 62.3306 104.624 69.8825 104.287 72.9966C104.195 73.8307 104.336 75.4209 102.524 75.7261Z" fill="#EAAE33"/>
<path fill-rule="evenodd" clip-rule="evenodd" d="M125.286 184.935C123.03 186.79 120.573 186.952 118.536 188.029C117.139 188.77 115.239 188.678 114.002 189.57C112.826 190.418 111.71 190.999 110.335 191.237C109.29 191.417 108.425 191.289 107.782 189.734C113.491 188.169 119.104 186.63 125.286 184.935Z" fill="#EAAE33"/>
<path fill-rule="evenodd" clip-rule="evenodd" d="M32.0469 83.9148C31.5691 83.4232 31.1227 82.8983 30.6072 82.4487C29.8986 81.8339 29.934 81.2508 31.0108 80.3927C29.5546 80.5792 29.3677 79.6666 28.8942 79.0172C28.9599 78.4874 29.9278 78.9765 29.8237 78.0518C28.9529 77.9036 28.4614 77.2081 28.4956 76.3C28.5935 73.6999 27.6138 71.23 27.4495 68.6614C29.0706 68.5054 29.3448 68.5304 29.2462 69.6655C28.9605 72.9151 30.0277 75.7937 31.4023 78.4913C30.963 79.2239 30.1842 78.5967 29.9026 79.2121C31.4317 80.3881 32.1049 81.9518 31.9716 83.8774L32.0469 83.9148Z" fill="#EAAE33"/>
<path fill-rule="evenodd" clip-rule="evenodd" d="M120.555 96.9366C122.879 99.3053 123.32 106.658 121.58 109.337C121.009 105.337 118.997 101.448 120.555 96.9366Z" fill="#EAAE33"/>
<path fill-rule="evenodd" clip-rule="evenodd" d="M92.4704 62.8534C94.1069 61.4514 92.8116 60.1849 93.2634 58.9652C92.5245 58.8424 92.6157 59.5473 92.1087 59.6354C91.254 56.8902 90.0408 54.2169 89.9771 50.8926C93.1739 53.43 92.554 57.0192 93.7461 59.8917C94.1849 60.9533 95.0914 61.9114 94.7782 63.348C94.6045 64.1449 94.0827 63.9609 93.9095 64.2915C92.9351 64.0416 95.0721 62.2069 92.4704 62.8534Z" fill="#EAAE33"/>
<path fill-rule="evenodd" clip-rule="evenodd" d="M70.8214 106.009C70.7667 105.809 70.7018 105.431 70.6549 105.433C67.5974 105.579 67.5621 102.641 66.8101 101.033C65.954 99.2067 64.9901 97.9109 63.2673 97.0096C63.344 96.4169 63.242 95.7818 64.1476 95.1202C64.6281 98.2071 67.5717 99.0832 69.078 101.235C69.7073 102.132 69.0524 103.759 70.3632 104.184C71.427 104.529 71.1326 105.251 71.3034 105.887C71.1438 105.927 70.9826 105.968 70.8214 106.009Z" fill="#EAAE33"/>
<path fill-rule="evenodd" clip-rule="evenodd" d="M43.839 55.5896C44.6756 55.1703 45.1114 55.99 45.7416 55.3441C46.2529 59.1332 45.2404 62.6313 45.9342 66.1241C43.5398 62.8953 45.2548 58.9953 43.839 55.5896Z" fill="#EAAE33"/>
<path fill-rule="evenodd" clip-rule="evenodd" d="M114.844 145.102C113.348 144.321 112.98 143.221 112.964 141.649C112.948 140.445 113.999 140.852 114.252 140.26C114.809 140.533 115.556 140.733 114.733 141.528C116.427 142.714 114.489 143.882 114.844 145.102Z" fill="#EAAE33"/>
<path fill-rule="evenodd" clip-rule="evenodd" d="M125.051 108.376C123.478 106.4 126.427 105.234 125.369 103.642C125.15 103.157 124.526 103.858 124.174 103.242C124.181 102.716 124.19 102.094 124.201 101.365C124.794 100.987 125.76 100.874 125.743 101.605C125.695 103.771 126.734 106.065 125.051 108.376Z" fill="#EAAE33"/>
<path fill-rule="evenodd" clip-rule="evenodd" d="M57.6427 98.1456C60.6848 99.0282 61.7916 101.205 60.6387 104.101C59.9881 101.863 58.5198 100.369 57.6427 98.1456Z" fill="#EAAE33"/>
<path fill-rule="evenodd" clip-rule="evenodd" d="M43.6839 53.2153C44.333 51.4579 43.8818 49.325 46.0261 48.0493C46.3034 51.8252 45.9415 52.6157 43.6839 53.2153Z" fill="#EAAE33"/>
<path fill-rule="evenodd" clip-rule="evenodd" d="M113.949 133.997C113.413 133.838 112.98 133.999 112.449 134.474C112.188 132.577 112.327 130.877 113.023 129.011C113.842 130.729 113.895 132.35 113.949 133.997Z" fill="#EAAE33"/>
<path fill-rule="evenodd" clip-rule="evenodd" d="M75.8976 110.583C74.2503 111.529 73.6223 110.181 72.7391 109.25C72.0645 108.535 72.0678 107.989 72.8865 107.305C73.6382 108.629 75.6052 108.792 75.8796 110.588L75.8976 110.583Z" fill="#EAAE33"/>
<path fill-rule="evenodd" clip-rule="evenodd" d="M38.3651 86.4951C38.8666 87.7594 40.5611 88.7758 39.1494 90.5101C38.4502 89.6536 37.8089 88.8093 37.4784 87.7707C37.2036 86.9033 37.4729 86.4355 38.45 86.5352C38.4525 86.538 38.3651 86.4951 38.3651 86.4951Z" fill="#EAAE33"/>
<path fill-rule="evenodd" clip-rule="evenodd" d="M114.728 196.92C113.784 196.164 112.853 195.719 111.771 196.867C111.958 195.516 113.326 195.225 113.187 194.046C114.048 194.023 114.473 195.176 115.47 194.514C114.286 195.069 114.902 196.008 114.728 196.92Z" fill="#EAAE33"/>
<path fill-rule="evenodd" clip-rule="evenodd" d="M75.3332 119.295C76.8132 119.323 76.9099 121.119 78.1995 121.39C75.5915 121.378 75.0034 120.901 75.3736 119.243L75.3332 119.295Z" fill="#EAAE33"/>
<path fill-rule="evenodd" clip-rule="evenodd" d="M64.5298 106.573C63.436 106.554 63.0437 105.855 62.3313 106.034C62.3115 105.398 62.2924 104.808 62.274 104.247C62.4242 104.141 62.5402 103.993 62.6286 104.007C64.0188 104.247 63.7678 105.577 64.5298 106.573Z" fill="#EAAE33"/>
<path fill-rule="evenodd" clip-rule="evenodd" d="M113.557 116.884C112.153 116.414 112.002 115.569 112.068 114.348C113.293 114.817 113.671 115.547 113.557 116.884Z" fill="#EAAE33"/>
<path fill-rule="evenodd" clip-rule="evenodd" d="M114.598 146.205C115.275 148.116 115.275 148.116 113.696 148.426C113.462 147.438 114.795 147.148 114.598 146.205Z" fill="#EAAE33"/>
<path fill-rule="evenodd" clip-rule="evenodd" d="M113.972 139.352C113.806 138.17 113.469 136.947 113.546 135.793C113.942 135.857 114.337 135.92 114.733 135.984C113.879 137.026 114.162 138.218 113.972 139.352Z" fill="#EAAE33"/>
<path fill-rule="evenodd" clip-rule="evenodd" d="M70.8214 106.009C70.9826 105.968 71.1438 105.927 71.3034 105.887C71.6 106.154 71.8986 106.422 72.2515 106.74C71.7668 107.288 70.8411 106.459 70.6447 107.673C70.2454 106.884 70.0136 106.424 69.7085 105.818C70.1732 105.896 70.4984 105.953 70.8214 106.009Z" fill="#EAAE33"/>
<path fill-rule="evenodd" clip-rule="evenodd" d="M75.3735 119.243C74.9902 119.417 74.6026 119.562 74.0432 119.247C74.9223 118.579 74.0024 117.989 73.6844 116.829C75.0229 117.586 75.4589 118.252 75.3348 119.294C75.3331 119.295 75.3735 119.243 75.3735 119.243Z" fill="#EAAE33"/>
<path fill-rule="evenodd" clip-rule="evenodd" d="M31.9715 83.8774C32.4916 84.5298 32.1526 85.314 32.483 86.1855C30.9123 84.8063 30.8784 84.5412 32.0448 83.9136C32.0469 83.9148 31.9715 83.8774 31.9715 83.8774Z" fill="#EAAE33"/>
<path fill-rule="evenodd" clip-rule="evenodd" d="M75.8797 110.588C76.4562 111.388 76.4315 112.132 75.593 112.865C75.2916 112.568 74.9843 112.262 74.6686 111.951C74.9677 111.309 75.856 111.323 75.896 110.583C75.8977 110.583 75.8797 110.588 75.8797 110.588Z" fill="#EAAE33"/>
<path fill-rule="evenodd" clip-rule="evenodd" d="M40.7325 94.6544C40.7198 93.8383 39.0204 93.4459 40.1035 92.2449C40.5995 93.0147 40.7527 93.8046 40.7325 94.6544Z" fill="#EAAE33"/>
<path fill-rule="evenodd" clip-rule="evenodd" d="M106.776 191.978C106.696 191.443 106.506 191.022 105.721 191.107C106.342 190.762 106.907 190.192 107.394 190.928C107.798 191.538 107.091 191.697 106.697 191.93C106.698 191.931 106.776 191.978 106.776 191.978Z" fill="#EAAE33"/>
<path fill-rule="evenodd" clip-rule="evenodd" d="M92.8358 147.527C92.1432 147.214 91.4587 147.155 91.8788 146.314C92.0976 145.874 92.4699 145.962 92.7622 146.091C93.54 146.439 92.9469 146.925 92.8358 147.527Z" fill="#EAAE33"/>
<path fill-rule="evenodd" clip-rule="evenodd" d="M36.7549 51.9229C35.843 51.7402 35.4156 51.6569 34.9704 51.5662C35.1628 51.0684 35.2124 50.55 35.8416 50.2597C36.0649 50.6698 36.2893 51.0779 36.7549 51.9229Z" fill="#EAAE33"/>
<path fill-rule="evenodd" clip-rule="evenodd" d="M45.4586 66.9686C46.5161 67.3998 45.8532 68.0934 46.0896 68.8077C45.3531 68.2129 44.8624 67.7705 45.4586 66.9686Z" fill="#EAAE33"/>
<path fill-rule="evenodd" clip-rule="evenodd" d="M95.4517 68.8639C95.0107 67.7431 95.2929 67.4318 96.1539 67.5633C96.2796 68.1691 95.8449 68.4184 95.4517 68.8639Z" fill="#EAAE33"/>
<path fill-rule="evenodd" clip-rule="evenodd" d="M83.6805 119.294C82.6595 119.182 82.3342 118.88 82.2437 118.32C82.8469 118.242 83.0668 118.724 83.6805 119.294Z" fill="#EAAE33"/>
<path fill-rule="evenodd" clip-rule="evenodd" d="M84.7046 159.022C85.1816 158.863 85.146 158.143 85.7158 158.374C85.8367 158.423 85.9627 158.735 85.919 158.877C85.6641 159.725 85.2044 159.049 84.7046 159.022Z" fill="#EAAE33"/>
<path fill-rule="evenodd" clip-rule="evenodd" d="M78.4849 122.534C79.3473 122.549 79.4989 123.172 80.0689 123.776C79.1067 123.628 78.8438 123.137 78.4849 122.534Z" fill="#EAAE33"/>
<path fill-rule="evenodd" clip-rule="evenodd" d="M66.7132 110.328C67.3744 110.378 67.395 110.832 67.3615 111.332C66.6019 111.262 66.6179 110.788 66.7644 110.245L66.7132 110.328Z" fill="#EAAE33"/>
<path fill-rule="evenodd" clip-rule="evenodd" d="M66.7644 110.245C66.2092 110.17 65.8052 109.954 65.7196 109.283C66.718 109.178 66.5844 109.858 66.7144 110.325C66.7132 110.327 66.7644 110.245 66.7644 110.245Z" fill="#EAAE33"/>
<path fill-rule="evenodd" clip-rule="evenodd" d="M36.5552 84.3778C36.997 84.4624 37.5271 84.6442 37.3688 85.0869C37.1823 85.6129 36.7646 85.5006 36.5855 84.9692C36.5242 84.7908 36.5631 84.5796 36.5552 84.3778Z" fill="#EAAE33"/>
</g>
<defs>
<clipPath id="clip0_99_796">
<rect width="128.916" height="196.766" fill="white" transform="translate(0.995361 34.0891) rotate(-15.3331)"/>
</clipPath>
</defs>
</svg>
